<?xml version="1.0" encoding="utf-8"?>
<!-- Generator: Adobe Illustrator 19.0.0, SVG Export Plug-In . SVG Version: 6.00 Build 0)  -->
<svg version="1.1" id="Layer_1" xmlns="http://www.w3.org/2000/svg" xmlns:xlink="http://www.w3.org/1999/xlink" x="0px" y="0px"
	 viewBox="-49 32.2 200 44.8" style="enable-background:new -49 32.2 200 44.8;" xml:space="preserve">
<style type="text/css">
	.st0{fill:#6287C5;}
	.st1{fill:#4466B0;}
	.st2{clip-path:url(#SVGID_2_);}
	.st3{fill:#4466AF;}
	.st4{fill:#6286C4;}
</style>
<path id="XMLID_109_" class="st0" d="M-22.1,33.2c1.2,0,4.4,8.8,6.5,13.1c0.8,1.6,1.6,3.1,2.3,4.7c0.4,0.8,0.8,0.9,1.5,0.5
	c5-2.4,16-8,16.5-7.5c0.4,0.4-4.9,12.3-7.2,17.8c-0.3,0.8-0.7,1.3-1.8,1.3c-12,0-23.9,0-35.9,0c-1,0-1.5-0.4-1.8-1.2
	c-2.4-5.8-6.5-17.9-6.1-18.3c0.4-0.3,10.4,5.1,15.2,7.5c1,0.5,1.4,0.3,1.8-0.7C-28.7,46.1-24,33.2-22.1,33.2z"/>
<g id="XMLID_5_">
	<path id="XMLID_25_" class="st1" d="M9.7,63.1c-0.4-0.6-0.6-1.3-0.6-2.1V46.1c0-0.8,0.2-1.5,0.6-2.1c0.4-0.6,0.9-0.9,1.5-0.9
		s1.1,0.3,1.5,0.9s0.6,1.3,0.6,2.1v6.5l5.3-7.4c0.2-0.4,0.4-0.7,0.5-0.8c0.1-0.2,0.3-0.4,0.5-0.6s0.4-0.4,0.5-0.5
		c0.2-0.1,0.4-0.1,0.6-0.1c0.5,0,0.9,0.2,1.3,0.7c0.4,0.4,0.6,1,0.6,1.6s-0.4,1.5-1.1,2.7l-3.7,4.9l3.9,5.7c0.7,1.3,1.1,2.3,1.1,2.9
		c0,0.6-0.2,1.2-0.6,1.6S21.3,64,20.8,64c-0.2,0-0.3,0-0.4-0.1c-0.1-0.1-0.3-0.1-0.4-0.3c-0.1-0.1-0.3-0.2-0.4-0.4
		c-0.1-0.1-0.2-0.3-0.4-0.5c-0.1-0.2-0.2-0.4-0.3-0.5c-0.1-0.1-0.2-0.3-0.3-0.6c-0.1-0.3-0.2-0.4-0.3-0.5l-5-7.5v7.3
		c0,0.8-0.2,1.5-0.6,2.1c-0.4,0.6-0.9,0.9-1.5,0.9C10.6,64,10.1,63.7,9.7,63.1z"/>
	<path id="XMLID_27_" class="st1" d="M26.1,63.1c-0.4-0.6-0.6-1.3-0.6-2.1V46.1c0-0.8,0.2-1.5,0.6-2.1s0.9-0.9,1.5-0.9
		s1.1,0.3,1.5,0.9s0.6,1.3,0.6,2.1V61c0,0.8-0.2,1.5-0.6,2.1c-0.4,0.6-0.9,0.9-1.5,0.9S26.5,63.7,26.1,63.1z"/>
	<path id="XMLID_29_" class="st1" d="M33.8,63.2c-0.3-0.5-0.5-1-0.5-1.7V46.1c0-0.9,0.2-1.7,0.6-2.2s0.9-0.8,1.5-0.8
		c0.8,0,1.7,0.8,2.6,2.5l6.8,11V45.5c0-0.6,0.2-1.2,0.5-1.7s0.8-0.7,1.3-0.7s0.9,0.2,1.3,0.7s0.5,1,0.5,1.7v14.2
		c0,0.6,0,1.2-0.1,1.6c-0.1,0.5-0.1,0.9-0.3,1.3c-0.1,0.4-0.3,0.8-0.6,1c-0.3,0.2-0.6,0.3-1.1,0.3c-0.4,0-0.9-0.2-1.3-0.6
		s-0.8-1-1.3-1.8l-6.9-11.2v11.3c0,0.7-0.2,1.2-0.5,1.7C35.9,63.8,35.5,64,35,64C34.6,64,34.2,63.7,33.8,63.2z"/>
	<path id="XMLID_31_" class="st1" d="M53.6,61.8c-1.5-1.8-2.3-4.5-2.3-8.2c0-1.5,0.2-3,0.5-4.3c0.4-1.3,0.9-2.5,1.6-3.5
		s1.6-1.8,2.8-2.4c1.1-0.6,2.4-0.9,3.9-0.9c1,0,2,0.2,3,0.5s1.8,0.8,2.4,1.3c0.3,0.2,0.4,0.5,0.6,0.8c0.2,0.3,0.2,0.6,0.2,0.9
		c0,0.5-0.1,0.9-0.4,1.3s-0.6,0.6-1,0.6c-0.2,0-0.5-0.1-0.7-0.3c-0.5-0.3-1-0.6-1.8-0.8c-0.7-0.2-1.4-0.3-2-0.3
		c-1.5,0-2.7,0.6-3.4,1.9c-0.8,1.2-1.2,3-1.2,5.4c0,1.3,0.1,2.3,0.3,3.2c0.2,0.9,0.6,1.6,1,2s0.9,0.8,1.4,1s1.1,0.3,1.8,0.3
		c0.7,0,1.6-0.1,2.5-0.4v-4.3h-1.6c-0.5,0-0.9-0.1-1.2-0.3c-0.3-0.2-0.4-0.6-0.4-1.2c0-1,0.5-1.5,1.4-1.5c0.5,0,1.2,0,2.2,0
		s1.7,0,2.2,0c0.6,0,0.9,0.2,1.1,0.6c0.2,0.4,0.3,1.1,0.3,2V59c0,0.7,0,1.3-0.1,1.7c0,0.4-0.1,0.9-0.2,1.3c-0.1,0.4-0.3,0.7-0.5,0.9
		c-0.2,0.2-0.5,0.4-0.8,0.6c-0.3,0.2-0.8,0.3-1.3,0.4c-1.9,0.3-3.1,0.4-3.7,0.4C57.3,64.5,55.1,63.6,53.6,61.8z"/>
	<path id="XMLID_33_" class="st1" d="M69.8,63c-0.2-0.2-0.4-0.4-0.5-0.7s-0.1-0.6-0.1-0.9c0-0.3,0.1-0.6,0.2-0.9s0.3-0.5,0.5-0.7
		s0.4-0.3,0.7-0.3s0.5,0,0.9,0.2c1.3,0.7,2.6,1,3.9,1c0.9,0,1.5-0.2,2.1-0.6c0.6-0.4,0.8-0.9,0.8-1.7c0-1-0.6-1.7-1.8-2.2l-3.8-1.6
		c-1.4-0.7-2.4-1.4-3-2.2s-0.9-1.9-0.9-3.3c0-1.9,0.6-3.5,1.9-4.6c1.2-1.2,2.9-1.7,5-1.7c1,0,2,0.2,3.1,0.5c1,0.3,1.8,0.8,2.4,1.4
		c0.2,0.3,0.4,0.6,0.4,1c0.1,0.4,0,0.7,0,1c-0.1,0.3-0.2,0.6-0.4,0.8c-0.2,0.2-0.4,0.4-0.6,0.5c-0.2,0.1-0.5,0-0.7-0.1
		c-0.7-0.5-1.3-0.8-1.9-1s-1.3-0.3-2-0.3c-0.5,0-1,0.1-1.4,0.2c-0.4,0.1-0.8,0.4-1.1,0.7c-0.3,0.3-0.4,0.7-0.4,1.2
		c0,0.6,0.2,1.1,0.6,1.5s1,0.7,1.8,1.1c0.2,0.1,0.5,0.2,0.9,0.2c0.4,0.1,0.7,0.1,0.9,0.2c0.7,0.3,1.3,0.5,1.8,0.8
		c0.5,0.2,1,0.6,1.5,0.9c0.5,0.4,0.9,0.7,1.1,1.2c0.3,0.4,0.5,0.9,0.7,1.5s0.3,1.2,0.3,2c0,2-0.6,3.6-1.9,4.8
		c-1.2,1.2-2.9,1.8-5,1.8C73,64.5,71.2,64,69.8,63z"/>
	<path id="XMLID_35_" class="st1" d="M85.4,63.1c-0.4-0.6-0.6-1.3-0.6-2.1V46.1c0-0.8,0.2-1.5,0.6-2.1s0.9-0.9,1.5-0.9
		s1.1,0.3,1.5,0.9s0.6,1.3,0.6,2.1v5h6v-5c0-0.8,0.2-1.5,0.6-2.1c0.4-0.6,0.9-0.9,1.5-0.9s1.1,0.3,1.5,0.9s0.6,1.3,0.6,2.1V61
		c0,0.8-0.2,1.5-0.6,2.1c-0.4,0.6-0.9,0.9-1.5,0.9s-1.1-0.3-1.5-0.9C95.2,62.5,95,61.8,95,61v-5.6h-6V61c0,0.8-0.2,1.5-0.6,2.1
		C88,63.7,87.5,64,86.9,64C86.3,64,85.8,63.7,85.4,63.1z"/>
	<path id="XMLID_37_" class="st1" d="M103.9,61.8c-1.4-1.8-2.1-4.6-2.1-8.2c0-3.6,0.7-6.4,2.1-8.2c1.4-1.8,3.4-2.7,6.2-2.7
		c2.7,0,4.8,0.9,6.1,2.7c1.4,1.8,2.1,4.6,2.1,8.2s-0.7,6.4-2.1,8.2c-1.4,1.8-3.4,2.7-6.1,2.7C107.3,64.5,105.3,63.6,103.9,61.8z
		 M113,59c0.6-1.1,0.9-2.9,0.9-5.5s-0.3-4.4-0.9-5.5s-1.6-1.6-2.9-1.6c-0.9,0-1.6,0.2-2.2,0.7c-0.5,0.4-0.9,1.2-1.2,2.2
		s-0.4,2.4-0.4,4.2c0,2.6,0.3,4.4,0.9,5.5c0.6,1.1,1.5,1.6,2.9,1.6C111.4,60.6,112.4,60.1,113,59z"/>
	<path id="XMLID_40_" class="st1" d="M122.3,63.6c-0.3-0.2-0.5-0.5-0.6-0.9c-0.2-0.4-0.3-0.8-0.3-1.2c-0.1-0.4-0.1-0.8-0.1-1.3v-13
		c0-0.5,0-1,0-1.4c0-0.4,0.1-0.7,0.2-1.1s0.3-0.7,0.4-0.9c0.2-0.2,0.4-0.4,0.8-0.6c0.3-0.1,0.7-0.2,1.2-0.2h7.4
		c0.4,0,0.8,0.2,1.1,0.6c0.3,0.4,0.5,0.8,0.5,1.4c0,0.5-0.2,1-0.5,1.4c-0.3,0.4-0.7,0.6-1.1,0.6h-5.9v4.5h5.4c0.4,0,0.8,0.2,1.1,0.6
		c0.3,0.4,0.5,0.8,0.5,1.4c0,0.5-0.2,1-0.5,1.4c-0.3,0.4-0.7,0.6-1.1,0.6h-5.4v4.8h6.2c0.4,0,0.8,0.2,1.1,0.6
		c0.3,0.4,0.4,0.8,0.4,1.4s-0.1,1-0.4,1.4c-0.3,0.4-0.6,0.6-1.1,0.6h-8.3C122.9,64,122.6,63.8,122.3,63.6z"/>
	<path id="XMLID_42_" class="st1" d="M136,63c-0.2-0.2-0.4-0.4-0.5-0.7s-0.1-0.6-0.1-0.9c0-0.3,0.1-0.6,0.2-0.9
		c0.1-0.3,0.3-0.5,0.5-0.7s0.4-0.3,0.7-0.3s0.5,0,0.9,0.2c1.3,0.7,2.6,1,3.9,1c0.9,0,1.5-0.2,2.1-0.6c0.6-0.4,0.8-0.9,0.8-1.7
		c0-1-0.6-1.7-1.8-2.2l-3.8-1.6c-1.4-0.7-2.4-1.4-3-2.2s-0.9-1.9-0.9-3.3c0-1.9,0.6-3.5,1.9-4.6c1.2-1.2,2.9-1.7,5-1.7
		c1,0,2,0.2,3.1,0.5c1,0.3,1.8,0.8,2.4,1.4c0.2,0.3,0.4,0.6,0.4,1c0.1,0.4,0,0.7,0,1c-0.1,0.3-0.2,0.6-0.4,0.8
		c-0.2,0.2-0.4,0.4-0.6,0.5c-0.2,0.1-0.5,0-0.7-0.1c-0.7-0.5-1.3-0.8-1.9-1c-0.6-0.2-1.3-0.3-2-0.3c-0.5,0-1,0.1-1.4,0.2
		c-0.4,0.1-0.8,0.4-1.1,0.7s-0.4,0.7-0.4,1.2c0,0.6,0.2,1.1,0.6,1.5c0.4,0.4,1,0.7,1.8,1.1c0.2,0.1,0.5,0.2,0.9,0.2
		c0.4,0.1,0.7,0.1,0.9,0.2c0.7,0.3,1.3,0.5,1.8,0.8c0.5,0.2,1,0.6,1.5,0.9c0.5,0.4,0.9,0.7,1.1,1.2c0.3,0.4,0.5,0.9,0.7,1.5
		s0.3,1.2,0.3,2c0,2-0.6,3.6-1.9,4.8c-1.2,1.2-2.9,1.8-5,1.8C139.2,64.5,137.3,64,136,63z"/>
</g>
<g id="XMLID_14_">
	<g>
		<defs>
			<path id="SVGID_1_" d="M13.2,41.3c0,0,58,29.6,134.4,0H13.2z"/>
		</defs>
		<clipPath id="SVGID_2_">
			<use xlink:href="#SVGID_1_"  style="overflow:visible;"/>
		</clipPath>
		<g id="XMLID_4_" class="st2">
			<path id="XMLID_2_" class="st0" d="M9.7,63.1c-0.4-0.6-0.6-1.3-0.6-2.1V46.1c0-0.8,0.2-1.5,0.6-2.1c0.4-0.6,0.9-0.9,1.5-0.9
				s1.1,0.3,1.5,0.9s0.6,1.3,0.6,2.1v6.5l5.3-7.4c0.2-0.4,0.4-0.7,0.5-0.8c0.1-0.2,0.3-0.4,0.5-0.6s0.4-0.4,0.5-0.5
				c0.2-0.1,0.4-0.1,0.6-0.1c0.5,0,0.9,0.2,1.3,0.7c0.4,0.4,0.6,1,0.6,1.6s-0.4,1.5-1.1,2.7l-3.7,4.9l3.9,5.7
				c0.7,1.3,1.1,2.3,1.1,2.9c0,0.6-0.2,1.2-0.6,1.6S21.3,64,20.8,64c-0.2,0-0.3,0-0.4-0.1c-0.1-0.1-0.3-0.1-0.4-0.3
				c-0.1-0.1-0.3-0.2-0.4-0.4c-0.1-0.1-0.2-0.3-0.4-0.5c-0.1-0.2-0.2-0.4-0.3-0.5c-0.1-0.1-0.2-0.3-0.3-0.6
				c-0.1-0.3-0.2-0.4-0.3-0.5l-5-7.5v7.3c0,0.8-0.2,1.5-0.6,2.1c-0.4,0.6-0.9,0.9-1.5,0.9C10.6,64,10.1,63.7,9.7,63.1z"/>
			<path id="XMLID_6_" class="st0" d="M26.1,63.1c-0.4-0.6-0.6-1.3-0.6-2.1V46.1c0-0.8,0.2-1.5,0.6-2.1s0.9-0.9,1.5-0.9
				s1.1,0.3,1.5,0.9s0.6,1.3,0.6,2.1V61c0,0.8-0.2,1.5-0.6,2.1c-0.4,0.6-0.9,0.9-1.5,0.9S26.5,63.7,26.1,63.1z"/>
			<path id="XMLID_8_" class="st0" d="M33.8,63.2c-0.3-0.5-0.5-1-0.5-1.7V46.1c0-0.9,0.2-1.7,0.6-2.2s0.9-0.8,1.5-0.8
				c0.8,0,1.7,0.8,2.6,2.5l6.8,11V45.5c0-0.6,0.2-1.2,0.5-1.7s0.8-0.7,1.3-0.7s0.9,0.2,1.3,0.7s0.5,1,0.5,1.7v14.2
				c0,0.6,0,1.2-0.1,1.6c-0.1,0.5-0.1,0.9-0.3,1.3c-0.1,0.4-0.3,0.8-0.6,1c-0.3,0.2-0.6,0.3-1.1,0.3c-0.4,0-0.9-0.2-1.3-0.6
				s-0.8-1-1.3-1.8l-6.9-11.2v11.3c0,0.7-0.2,1.2-0.5,1.7C35.9,63.8,35.5,64,35,64C34.6,64,34.2,63.7,33.8,63.2z"/>
			<path id="XMLID_10_" class="st0" d="M53.6,61.8c-1.5-1.8-2.3-4.5-2.3-8.2c0-1.5,0.2-3,0.5-4.3c0.4-1.3,0.9-2.5,1.6-3.5
				s1.6-1.8,2.8-2.4c1.1-0.6,2.4-0.9,3.9-0.9c1,0,2,0.2,3,0.5s1.8,0.8,2.4,1.3c0.3,0.2,0.4,0.5,0.6,0.8c0.2,0.3,0.2,0.6,0.2,0.9
				c0,0.5-0.1,0.9-0.4,1.3s-0.6,0.6-1,0.6c-0.2,0-0.5-0.1-0.7-0.3c-0.5-0.3-1-0.6-1.8-0.8c-0.7-0.2-1.4-0.3-2-0.3
				c-1.5,0-2.7,0.6-3.4,1.9c-0.8,1.2-1.2,3-1.2,5.4c0,1.3,0.1,2.3,0.3,3.2c0.2,0.9,0.6,1.6,1,2s0.9,0.8,1.4,1s1.1,0.3,1.8,0.3
				c0.7,0,1.6-0.1,2.5-0.4v-4.3h-1.6c-0.5,0-0.9-0.1-1.2-0.3c-0.3-0.2-0.4-0.6-0.4-1.2c0-1,0.5-1.5,1.4-1.5c0.5,0,1.2,0,2.2,0
				s1.7,0,2.2,0c0.6,0,0.9,0.2,1.1,0.6c0.2,0.4,0.3,1.1,0.3,2V59c0,0.7,0,1.3-0.1,1.7c0,0.4-0.1,0.9-0.2,1.3
				c-0.1,0.4-0.3,0.7-0.5,0.9c-0.2,0.2-0.5,0.4-0.8,0.6c-0.3,0.2-0.8,0.3-1.3,0.4c-1.9,0.3-3.1,0.4-3.7,0.4
				C57.3,64.5,55.1,63.6,53.6,61.8z"/>
			<path id="XMLID_13_" class="st0" d="M69.8,63c-0.2-0.2-0.4-0.4-0.5-0.7s-0.1-0.6-0.1-0.9c0-0.3,0.1-0.6,0.2-0.9s0.3-0.5,0.5-0.7
				s0.4-0.3,0.7-0.3s0.5,0,0.9,0.2c1.3,0.7,2.6,1,3.9,1c0.9,0,1.5-0.2,2.1-0.6c0.6-0.4,0.8-0.9,0.8-1.7c0-1-0.6-1.7-1.8-2.2
				l-3.8-1.6c-1.4-0.7-2.4-1.4-3-2.2s-0.9-1.9-0.9-3.3c0-1.9,0.6-3.5,1.9-4.6c1.2-1.2,2.9-1.7,5-1.7c1,0,2,0.2,3.1,0.5
				c1,0.3,1.8,0.8,2.4,1.4c0.2,0.3,0.4,0.6,0.4,1c0.1,0.4,0,0.7,0,1c-0.1,0.3-0.2,0.6-0.4,0.8c-0.2,0.2-0.4,0.4-0.6,0.5
				c-0.2,0.1-0.5,0-0.7-0.1c-0.7-0.5-1.3-0.8-1.9-1s-1.3-0.3-2-0.3c-0.5,0-1,0.1-1.4,0.2c-0.4,0.1-0.8,0.4-1.1,0.7
				c-0.3,0.3-0.4,0.7-0.4,1.2c0,0.6,0.2,1.1,0.6,1.5s1,0.7,1.8,1.1c0.2,0.1,0.5,0.2,0.9,0.2c0.4,0.1,0.7,0.1,0.9,0.2
				c0.7,0.3,1.3,0.5,1.8,0.8c0.5,0.2,1,0.6,1.5,0.9c0.5,0.4,0.9,0.7,1.1,1.2c0.3,0.4,0.5,0.9,0.7,1.5s0.3,1.2,0.3,2
				c0,2-0.6,3.6-1.9,4.8c-1.2,1.2-2.9,1.8-5,1.8C73,64.5,71.2,64,69.8,63z"/>
			<path id="XMLID_16_" class="st0" d="M85.4,63.1c-0.4-0.6-0.6-1.3-0.6-2.1V46.1c0-0.8,0.2-1.5,0.6-2.1s0.9-0.9,1.5-0.9
				s1.1,0.3,1.5,0.9s0.6,1.3,0.6,2.1v5h6v-5c0-0.8,0.2-1.5,0.6-2.1c0.4-0.6,0.9-0.9,1.5-0.9s1.1,0.3,1.5,0.9s0.6,1.3,0.6,2.1V61
				c0,0.8-0.2,1.5-0.6,2.1c-0.4,0.6-0.9,0.9-1.5,0.9s-1.1-0.3-1.5-0.9C95.2,62.5,95,61.8,95,61v-5.6h-6V61c0,0.8-0.2,1.5-0.6,2.1
				C88,63.7,87.5,64,86.9,64C86.3,64,85.8,63.7,85.4,63.1z"/>
			<path id="XMLID_18_" class="st0" d="M103.9,61.8c-1.4-1.8-2.1-4.6-2.1-8.2c0-3.6,0.7-6.4,2.1-8.2c1.4-1.8,3.4-2.7,6.2-2.7
				c2.7,0,4.8,0.9,6.1,2.7c1.4,1.8,2.1,4.6,2.1,8.2s-0.7,6.4-2.1,8.2c-1.4,1.8-3.4,2.7-6.1,2.7C107.3,64.5,105.3,63.6,103.9,61.8z
				 M113,59c0.6-1.1,0.9-2.9,0.9-5.5s-0.3-4.4-0.9-5.5s-1.6-1.6-2.9-1.6c-0.9,0-1.6,0.2-2.2,0.7c-0.5,0.4-0.9,1.2-1.2,2.2
				s-0.4,2.4-0.4,4.2c0,2.6,0.3,4.4,0.9,5.5c0.6,1.1,1.5,1.6,2.9,1.6C111.4,60.6,112.4,60.1,113,59z"/>
			<path id="XMLID_21_" class="st0" d="M122.3,63.6c-0.3-0.2-0.5-0.5-0.6-0.9c-0.2-0.4-0.3-0.8-0.3-1.2c-0.1-0.4-0.1-0.8-0.1-1.3
				v-13c0-0.5,0-1,0-1.4c0-0.4,0.1-0.7,0.2-1.1s0.3-0.7,0.4-0.9c0.2-0.2,0.4-0.4,0.8-0.6c0.3-0.1,0.7-0.2,1.2-0.2h7.4
				c0.4,0,0.8,0.2,1.1,0.6c0.3,0.4,0.5,0.8,0.5,1.4c0,0.5-0.2,1-0.5,1.4c-0.3,0.4-0.7,0.6-1.1,0.6h-5.9v4.5h5.4
				c0.4,0,0.8,0.2,1.1,0.6c0.3,0.4,0.5,0.8,0.5,1.4c0,0.5-0.2,1-0.5,1.4c-0.3,0.4-0.7,0.6-1.1,0.6h-5.4v4.8h6.2
				c0.4,0,0.8,0.2,1.1,0.6c0.3,0.4,0.4,0.8,0.4,1.4s-0.1,1-0.4,1.4c-0.3,0.4-0.6,0.6-1.1,0.6h-8.3C122.9,64,122.6,63.8,122.3,63.6z"
				/>
			<path id="XMLID_23_" class="st0" d="M136,63c-0.2-0.2-0.4-0.4-0.5-0.7s-0.1-0.6-0.1-0.9c0-0.3,0.1-0.6,0.2-0.9
				c0.1-0.3,0.3-0.5,0.5-0.7s0.4-0.3,0.7-0.3s0.5,0,0.9,0.2c1.3,0.7,2.6,1,3.9,1c0.9,0,1.5-0.2,2.1-0.6c0.6-0.4,0.8-0.9,0.8-1.7
				c0-1-0.6-1.7-1.8-2.2l-3.8-1.6c-1.4-0.7-2.4-1.4-3-2.2s-0.9-1.9-0.9-3.3c0-1.9,0.6-3.5,1.9-4.6c1.2-1.2,2.9-1.7,5-1.7
				c1,0,2,0.2,3.1,0.5c1,0.3,1.8,0.8,2.4,1.4c0.2,0.3,0.4,0.6,0.4,1c0.1,0.4,0,0.7,0,1c-0.1,0.3-0.2,0.6-0.4,0.8
				c-0.2,0.2-0.4,0.4-0.6,0.5c-0.2,0.1-0.5,0-0.7-0.1c-0.7-0.5-1.3-0.8-1.9-1c-0.6-0.2-1.3-0.3-2-0.3c-0.5,0-1,0.1-1.4,0.2
				c-0.4,0.1-0.8,0.4-1.1,0.7s-0.4,0.7-0.4,1.2c0,0.6,0.2,1.1,0.6,1.5c0.4,0.4,1,0.7,1.8,1.1c0.2,0.1,0.5,0.2,0.9,0.2
				c0.4,0.1,0.7,0.1,0.9,0.2c0.7,0.3,1.3,0.5,1.8,0.8c0.5,0.2,1,0.6,1.5,0.9c0.5,0.4,0.9,0.7,1.1,1.2c0.3,0.4,0.5,0.9,0.7,1.5
				s0.3,1.2,0.3,2c0,2-0.6,3.6-1.9,4.8c-1.2,1.2-2.9,1.8-5,1.8C139.2,64.5,137.3,64,136,63z"/>
		</g>
	</g>
</g>
<g id="XMLID_1_">
</g>
<g id="XMLID_44_">
</g>
<g id="XMLID_45_">
</g>
<g id="XMLID_46_">
</g>
<g id="XMLID_47_">
</g>
<g id="XMLID_48_">
</g>
<g id="XMLID_12_">
	<path class="st3" d="M-30.8,145.9v-6.3h-10.8v-2.1l10.4-14.9h3.4v14.5h3.3v2.5h-3.3v6.3H-30.8z M-30.8,137.1v-7.8
		c0-1.2,0-2.4,0.1-3.7h-0.1c-0.7,1.4-1.3,2.4-1.9,3.4l-5.7,7.9v0.1H-30.8z"/>
	<path class="st3" d="M-12.4,145.9v-6.3h-10.8v-2.1l10.4-14.9h3.4v14.5h3.3v2.5h-3.3v6.3H-12.4z M-12.4,137.1v-7.8
		c0-1.2,0-2.4,0.1-3.7h-0.1c-0.7,1.4-1.3,2.4-1.9,3.4L-20,137v0.1H-12.4z"/>
	<path class="st3" d="M9.5,124.8c-0.6,0-1.5,0-2.4,0.1c-4.9,0.8-7.6,4.4-8.1,8.3h0.1c1.1-1.5,3-2.7,5.6-2.7c4.1,0,7,3,7,7.5
		c0,4.3-2.9,8.2-7.7,8.2c-5,0-8.2-3.9-8.2-9.9c0-4.6,1.6-8.2,3.9-10.5c1.9-1.9,4.5-3.1,7.5-3.4c0.9-0.1,1.7-0.2,2.3-0.2V124.8z
		 M8.6,138.3c0-3.3-1.9-5.3-4.8-5.3c-1.9,0-3.7,1.2-4.5,2.9c-0.2,0.4-0.4,0.8-0.4,1.4c0.1,3.8,1.8,6.7,5.1,6.7
		C6.8,143.9,8.6,141.6,8.6,138.3z"/>
	<path class="st3" d="M27.9,124.8c-0.6,0-1.5,0-2.4,0.1c-4.9,0.8-7.6,4.4-8.1,8.3h0.1c1.1-1.5,3-2.7,5.6-2.7c4.1,0,7,3,7,7.5
		c0,4.3-2.9,8.2-7.7,8.2c-5,0-8.2-3.9-8.2-9.9c0-4.6,1.6-8.2,3.9-10.5c1.9-1.9,4.5-3.1,7.5-3.4c0.9-0.1,1.7-0.2,2.3-0.2V124.8z
		 M27,138.3c0-3.3-1.9-5.3-4.8-5.3c-1.9,0-3.7,1.2-4.5,2.9c-0.2,0.4-0.4,0.8-0.4,1.4c0.1,3.8,1.8,6.7,5.1,6.7
		C25.2,143.9,27,141.6,27,138.3z"/>
	<path class="st3" d="M34.1,122.1c1.4-0.3,3.5-0.5,5.7-0.5c3.1,0,5.1,0.5,6.6,1.8c1.3,0.9,2,2.4,2,4.3c0,2.3-1.5,4.4-4.1,5.3v0.1
		c2.3,0.6,5,2.5,5,6.1c0,2.1-0.8,3.7-2,4.8c-1.7,1.5-4.4,2.3-8.4,2.3c-2.2,0-3.8-0.1-4.8-0.3V122.1z M37.3,132h2.8
		c3.3,0,5.2-1.7,5.2-4.1c0-2.8-2.2-3.9-5.3-3.9c-1.4,0-2.3,0.1-2.8,0.2V132z M37.3,143.5c0.6,0.1,1.5,0.1,2.6,0.1
		c3.2,0,6.2-1.2,6.2-4.7c0-3.3-2.8-4.7-6.2-4.7h-2.6V143.5z"/>
	<path class="st3" d="M67.9,134c0,7.9-2.9,12.3-8.1,12.3c-4.6,0-7.6-4.3-7.7-12c0-7.8,3.4-12.1,8.1-12.1
		C65.2,122.2,67.9,126.6,67.9,134z M55.3,134.4c0,6.1,1.9,9.5,4.7,9.5c3.2,0,4.8-3.8,4.8-9.7c0-5.7-1.5-9.5-4.7-9.5
		C57.3,124.7,55.3,128,55.3,134.4z"/>
</g>
<g id="XMLID_15_">
	<path class="st4" d="M-27.3-38.6c-0.6,0-1.5,0-2.4,0.1c-4.9,0.8-7.6,4.4-8.1,8.3h0.1c1.1-1.5,3-2.7,5.6-2.7c4.1,0,7,3,7,7.5
		c0,4.3-2.9,8.2-7.7,8.2c-5,0-8.2-3.9-8.2-9.9c0-4.6,1.6-8.2,3.9-10.5c1.9-1.9,4.5-3.1,7.5-3.4c0.9-0.1,1.7-0.2,2.3-0.2V-38.6z
		 M-28.1-25.2c0-3.3-1.9-5.3-4.8-5.3c-1.9,0-3.7,1.2-4.5,2.9c-0.2,0.4-0.4,0.8-0.4,1.4c0.1,3.8,1.8,6.7,5.1,6.7
		C-30-19.6-28.1-21.8-28.1-25.2z"/>
	<path class="st4" d="M-22.2-17.5v-1.9l2.5-2.4c6-5.7,8.6-8.7,8.7-12.2c0-2.4-1.1-4.6-4.6-4.6c-2.1,0-3.9,1.1-4.9,2l-1-2.2
		c1.6-1.4,3.9-2.4,6.6-2.4c5,0,7.1,3.4,7.1,6.8c0,4.3-3.1,7.8-8,12.5l-1.9,1.7v0.1h10.5v2.6H-22.2z"/>
	<path class="st4" d="M-4.1-23.4c0-2.9,1.8-5,4.6-6.2l0-0.1C-2-31-3.2-33-3.2-35c0-3.7,3.1-6.2,7.2-6.2c4.5,0,6.8,2.8,6.8,5.7
		c0,2-1,4.1-3.8,5.5v0.1c2.9,1.1,4.7,3.2,4.7,6c0,4.1-3.5,6.8-7.9,6.8C-1.1-17.1-4.1-20-4.1-23.4z M8.5-23.6c0-2.8-2-4.2-5.1-5.1
		c-2.7,0.8-4.2,2.6-4.2,4.8c-0.1,2.4,1.7,4.4,4.7,4.4C6.7-19.4,8.5-21.2,8.5-23.6z M-0.2-35.2c0,2.3,1.8,3.6,4.4,4.3
		c2-0.7,3.5-2.1,3.5-4.2C7.8-37,6.7-39,3.9-39C1.3-39-0.2-37.2-0.2-35.2z"/>
	<path class="st4" d="M29.8-40.8v2.1L19.6-17.5h-3.3l10.1-20.6v-0.1H15.1v-2.6H29.8z"/>
	<path class="st4" d="M51-18.3c-1.1,0.6-3.4,1.1-6.4,1.1c-6.8,0-11.9-4.3-11.9-12.2c0-7.6,5.1-12.7,12.6-12.7c3,0,4.9,0.6,5.7,1.1
		l-0.8,2.5c-1.2-0.6-2.9-1-4.9-1c-5.7,0-9.4,3.6-9.4,10c0,5.9,3.4,9.7,9.3,9.7c1.9,0,3.8-0.4,5.1-1L51-18.3z"/>
	<path class="st4" d="M67.7-38.2h-8.9l-0.9,6c0.5-0.1,1-0.1,1.9-0.1c1.8,0,3.6,0.4,5,1.3c1.8,1,3.3,3,3.3,6c0,4.6-3.6,8-8.7,8
		c-2.5,0-4.7-0.7-5.8-1.4l0.8-2.4c1,0.6,2.9,1.3,5,1.3c3,0,5.5-1.9,5.5-5.1c0-3-2-5.2-6.7-5.2c-1.3,0-2.4,0.1-3.2,0.3l1.5-11.2h11.2
		V-38.2z"/>
</g>
</svg>
