<?xml version="1.0" encoding="utf-8"?>
<!-- Generator: Adobe Illustrator 19.0.0, SVG Export Plug-In . SVG Version: 6.00 Build 0)  -->
<svg version="1.1" id="Layer_1" xmlns="http://www.w3.org/2000/svg" xmlns:xlink="http://www.w3.org/1999/xlink" x="0px" y="0px"
	 viewBox="0 0 665 254" style="enable-background:new 0 0 665 254;" xml:space="preserve">
<style type="text/css">
	.st0{fill:#814D9E;}
	.st1{fill:#A370B0;}
</style>
<g id="XMLID_2_">
	<g id="XMLID_7_">
		<path id="XMLID_39_" class="st0" d="M40.5,169.1c0,0.6-0.2,1.1-0.6,1.6c-0.4,0.5-1,0.9-1.9,1.2c-0.9,0.3-2,0.5-3.5,0.7
			c-1.4,0.2-3.3,0.3-5.5,0.3c-2.2,0-4-0.1-5.5-0.3s-2.6-0.4-3.5-0.7c-0.9-0.3-1.5-0.7-1.9-1.2c-0.4-0.5-0.6-1-0.6-1.6V60.6
			c0-0.6,0.2-1.1,0.6-1.6c0.4-0.5,1-0.9,1.9-1.2c0.9-0.3,2.1-0.5,3.5-0.7c1.4-0.2,3.3-0.3,5.5-0.3c2.2,0,4.1,0.1,5.5,0.3
			c1.4,0.2,2.6,0.4,3.5,0.7c0.9,0.3,1.5,0.7,1.9,1.2c0.4,0.5,0.6,1,0.6,1.6V169.1z"/>
		<path id="XMLID_41_" class="st0" d="M137.3,169.3c0,0.6-0.2,1.1-0.5,1.6c-0.3,0.4-0.9,0.8-1.7,1.1c-0.8,0.3-1.9,0.5-3.3,0.7
			c-1.4,0.1-3.2,0.2-5.2,0.2c-2.1,0-3.9-0.1-5.3-0.2c-1.4-0.1-2.5-0.4-3.3-0.7c-0.8-0.3-1.4-0.7-1.7-1.1c-0.3-0.4-0.5-1-0.5-1.6
			v-45.2c0-3.8-0.3-6.9-0.8-9.1c-0.5-2.2-1.3-4.1-2.4-5.6c-1-1.6-2.4-2.8-4-3.6c-1.6-0.9-3.6-1.3-5.8-1.3c-2.8,0-5.6,1-8.4,3.1
			c-2.8,2.1-5.8,5.1-8.8,9.1v52.7c0,0.6-0.2,1.1-0.5,1.6c-0.3,0.4-0.9,0.8-1.8,1.1c-0.8,0.3-1.9,0.5-3.3,0.7
			c-1.4,0.1-3.1,0.2-5.3,0.2c-2.1,0-3.9-0.1-5.3-0.2c-1.4-0.1-2.5-0.4-3.3-0.7c-0.8-0.3-1.4-0.7-1.8-1.1c-0.3-0.4-0.5-1-0.5-1.6
			V90.1c0-0.6,0.1-1.1,0.4-1.6c0.3-0.4,0.8-0.8,1.6-1.1c0.7-0.3,1.7-0.5,2.9-0.7c1.2-0.1,2.7-0.2,4.5-0.2c1.8,0,3.4,0.1,4.6,0.2
			c1.2,0.1,2.1,0.4,2.8,0.7c0.7,0.3,1.1,0.7,1.4,1.1c0.3,0.4,0.4,1,0.4,1.6v9.1c4.3-4.7,8.6-8.3,13-10.7c4.4-2.4,9-3.6,13.8-3.6
			c5.2,0,9.7,0.9,13.3,2.7c3.6,1.8,6.5,4.2,8.7,7.2c2.2,3,3.8,6.6,4.8,10.7c1,4.1,1.5,9,1.5,14.7V169.3z"/>
		<path id="XMLID_43_" class="st0" d="M222.8,67c0,1.8-0.1,3.3-0.2,4.5c-0.1,1.2-0.4,2.2-0.7,2.9c-0.3,0.7-0.7,1.2-1.1,1.6
			c-0.4,0.4-0.9,0.5-1.4,0.5h-36.6v30.9h34.3c0.5,0,1,0.1,1.4,0.4c0.4,0.3,0.8,0.8,1.1,1.5c0.3,0.7,0.5,1.7,0.7,2.8
			c0.1,1.2,0.2,2.7,0.2,4.4c0,1.8-0.1,3.3-0.2,4.4c-0.1,1.2-0.4,2.2-0.7,2.9c-0.3,0.8-0.7,1.3-1.1,1.6c-0.4,0.3-0.9,0.5-1.4,0.5
			h-34.3v42.8c0,0.7-0.2,1.2-0.5,1.7c-0.3,0.5-1,0.9-1.9,1.2c-0.9,0.3-2.1,0.6-3.5,0.8c-1.4,0.2-3.3,0.3-5.5,0.3
			c-2.2,0-4-0.1-5.5-0.3s-2.6-0.4-3.5-0.8c-0.9-0.3-1.5-0.7-1.9-1.2c-0.4-0.5-0.6-1-0.6-1.7V64.8c0-2.6,0.6-4.5,1.9-5.6
			c1.3-1.2,2.9-1.7,4.8-1.7h52.7c0.5,0,1,0.2,1.4,0.5c0.4,0.3,0.8,0.9,1.1,1.6c0.3,0.7,0.5,1.7,0.7,3
			C222.7,63.7,222.8,65.2,222.8,67z"/>
		<path id="XMLID_45_" class="st0" d="M315.9,128.9c0,6.7-0.9,12.9-2.6,18.5c-1.7,5.6-4.4,10.4-7.9,14.4c-3.5,4-7.9,7.1-13.2,9.3
			c-5.3,2.2-11.5,3.3-18.6,3.3c-6.9,0-12.8-1-17.9-2.9c-5.1-2-9.3-4.8-12.6-8.5c-3.3-3.7-5.8-8.3-7.4-13.8
			c-1.6-5.4-2.4-11.7-2.4-18.6c0-6.7,0.9-12.9,2.6-18.5c1.8-5.6,4.4-10.4,7.9-14.4c3.5-4,7.9-7.1,13.2-9.3
			c5.3-2.2,11.5-3.3,18.6-3.3c6.9,0,12.9,1,18,2.9c5.1,1.9,9.3,4.8,12.6,8.5c3.3,3.7,5.8,8.3,7.4,13.8
			C315.1,115.6,315.9,121.8,315.9,128.9z M293.5,129.8c0-3.9-0.3-7.5-0.9-10.8s-1.6-6.1-3.1-8.6c-1.4-2.4-3.4-4.3-5.8-5.7
			c-2.4-1.4-5.4-2-9-2c-3.2,0-6.1,0.6-8.5,1.8c-2.4,1.2-4.4,3-6,5.3c-1.6,2.3-2.7,5.1-3.5,8.4c-0.8,3.3-1.2,7-1.2,11.2
			c0,3.9,0.3,7.5,1,10.8c0.6,3.3,1.7,6.1,3.1,8.6c1.4,2.4,3.3,4.3,5.8,5.6s5.4,2,9,2c3.3,0,6.1-0.6,8.6-1.8c2.4-1.2,4.4-3,6-5.3
			c1.6-2.3,2.7-5.1,3.5-8.4C293.1,137.7,293.5,134,293.5,129.8z"/>
		<path id="XMLID_48_" class="st0" d="M404.8,169.4c0,0.6-0.2,1.1-0.5,1.6c-0.3,0.4-0.9,0.8-1.7,1.1s-2,0.5-3.4,0.6
			c-1.4,0.1-3.3,0.2-5.6,0.2c-2.4,0-4.3-0.1-5.8-0.2c-1.5-0.1-2.7-0.3-3.6-0.6c-1-0.3-1.7-0.6-2.2-1.1c-0.5-0.5-1-1.1-1.4-1.9
			l-25.7-41.7v41.9c0,0.6-0.2,1.1-0.5,1.6c-0.3,0.4-0.9,0.8-1.8,1.1c-0.8,0.3-1.9,0.5-3.3,0.7c-1.4,0.1-3.1,0.2-5.3,0.2
			c-2.1,0-3.9-0.1-5.3-0.2c-1.4-0.1-2.5-0.4-3.3-0.7c-0.8-0.3-1.4-0.7-1.8-1.1c-0.3-0.4-0.5-1-0.5-1.6V52.5c0-0.6,0.2-1.1,0.5-1.6
			c0.3-0.5,0.9-0.9,1.8-1.2c0.8-0.3,1.9-0.6,3.3-0.8c1.4-0.2,3.1-0.3,5.3-0.3c2.1,0,3.9,0.1,5.3,0.3c1.4,0.2,2.5,0.4,3.3,0.8
			c0.8,0.3,1.4,0.7,1.8,1.2c0.3,0.5,0.5,1,0.5,1.6V122l22.8-31.5c0.5-0.7,1-1.3,1.6-1.9c0.6-0.5,1.3-0.9,2.3-1.2
			c1-0.3,2.1-0.5,3.5-0.7c1.4-0.1,3.2-0.2,5.4-0.2c2.1,0,3.9,0.1,5.4,0.2c1.5,0.1,2.7,0.4,3.5,0.7c0.9,0.3,1.5,0.7,1.9,1.1
			s0.5,1,0.5,1.6c0,0.9-0.2,1.8-0.6,2.8c-0.4,1-1.1,2.1-1.9,3.2l-22.6,26.3l26.1,41.5c0.7,1.2,1.2,2.2,1.5,3.1
			C404.6,167.9,404.8,168.7,404.8,169.4z"/>
		<path id="XMLID_50_" class="st0" d="M531.3,169.3c0,0.6-0.1,1.1-0.4,1.6c-0.3,0.4-0.8,0.8-1.5,1.1c-0.7,0.3-1.7,0.5-2.9,0.7
			c-1.2,0.1-2.7,0.2-4.5,0.2c-1.9,0-3.4-0.1-4.6-0.2c-1.2-0.1-2.1-0.4-2.8-0.7c-0.7-0.3-1.2-0.7-1.5-1.1c-0.3-0.4-0.4-1-0.4-1.6
			v-9.1c-4.3,4.7-8.6,8.3-13,10.7c-4.4,2.4-9,3.6-13.7,3.6c-5.3,0-9.8-0.9-13.4-2.7c-3.6-1.8-6.5-4.2-8.7-7.3
			c-2.2-3.1-3.8-6.6-4.8-10.7c-1-4.1-1.4-9.1-1.4-15.1V90.1c0-0.6,0.2-1.1,0.5-1.6c0.3-0.4,0.9-0.8,1.7-1.1c0.8-0.3,2-0.5,3.4-0.7
			c1.4-0.1,3.2-0.2,5.2-0.2c2.1,0,3.9,0.1,5.3,0.2c1.4,0.1,2.5,0.4,3.3,0.7c0.8,0.3,1.4,0.7,1.8,1.1c0.3,0.4,0.5,1,0.5,1.6v44.8
			c0,4.1,0.3,7.3,0.8,9.5c0.5,2.2,1.3,4.1,2.4,5.6c1.1,1.6,2.4,2.8,4.1,3.6c1.6,0.9,3.6,1.3,5.8,1.3c2.8,0,5.5-1,8.3-3.1
			c2.8-2.1,5.8-5.1,9-9.1V90.1c0-0.6,0.2-1.1,0.5-1.6c0.3-0.4,0.9-0.8,1.7-1.1c0.8-0.3,1.9-0.5,3.3-0.7c1.4-0.1,3.1-0.2,5.3-0.2
			c2.1,0,3.9,0.1,5.3,0.2c1.4,0.1,2.5,0.4,3.3,0.7c0.8,0.3,1.4,0.7,1.7,1.1c0.3,0.4,0.5,1,0.5,1.6V169.3z"/>
		<path id="XMLID_52_" class="st0" d="M607.6,146.9c0,4.5-0.8,8.5-2.5,11.9c-1.6,3.4-4,6.3-7,8.6c-3,2.3-6.5,4-10.6,5.2
			c-4.1,1.2-8.5,1.7-13.3,1.7c-2.9,0-5.6-0.2-8.3-0.7c-2.6-0.4-5-1-7.1-1.7c-2.1-0.7-3.8-1.4-5.2-2.1c-1.4-0.7-2.4-1.4-3-2
			c-0.6-0.6-1.1-1.6-1.5-2.9c-0.3-1.3-0.5-3.3-0.5-5.9c0-1.7,0.1-3.1,0.2-4.1c0.1-1,0.3-1.9,0.5-2.5c0.2-0.6,0.5-1,0.9-1.2
			c0.3-0.2,0.8-0.3,1.3-0.3c0.6,0,1.6,0.4,2.8,1.1c1.2,0.7,2.8,1.6,4.6,2.4c1.8,0.9,4,1.7,6.4,2.5c2.5,0.8,5.2,1.2,8.3,1.2
			c2,0,3.7-0.2,5.2-0.6c1.5-0.4,2.9-1,4-1.8c1.1-0.8,2-1.7,2.6-2.9c0.6-1.2,0.9-2.5,0.9-4.1c0-1.8-0.5-3.3-1.6-4.6
			c-1.1-1.3-2.5-2.4-4.2-3.3c-1.8-0.9-3.7-1.8-6-2.7c-2.2-0.8-4.5-1.7-6.8-2.8c-2.3-1-4.6-2.2-6.8-3.5c-2.2-1.3-4.2-2.9-6-4.8
			c-1.8-1.9-3.2-4.2-4.2-6.8c-1.1-2.7-1.6-5.9-1.6-9.6c0-3.8,0.7-7.3,2.2-10.4c1.4-3.2,3.5-5.9,6.2-8.1c2.7-2.2,6-4,9.9-5.2
			s8.3-1.9,13.1-1.9c2.4,0,4.8,0.2,7,0.5c2.3,0.4,4.3,0.8,6.2,1.3c1.8,0.5,3.4,1.1,4.7,1.7c1.3,0.6,2.2,1.2,2.7,1.6
			c0.5,0.4,0.9,0.9,1.2,1.3c0.2,0.4,0.4,1,0.5,1.6c0.1,0.6,0.2,1.4,0.3,2.3c0.1,0.9,0.1,2.1,0.1,3.4c0,1.6,0,2.9-0.1,3.9
			c-0.1,1-0.2,1.8-0.4,2.4c-0.2,0.6-0.5,1-0.8,1.2c-0.3,0.2-0.8,0.3-1.2,0.3c-0.5,0-1.3-0.3-2.4-0.9c-1.1-0.6-2.5-1.3-4.1-2
			s-3.5-1.4-5.7-2c-2.2-0.6-4.6-0.9-7.4-0.9c-2,0-3.7,0.2-5.1,0.6c-1.4,0.4-2.6,1-3.5,1.8c-0.9,0.8-1.6,1.7-2.1,2.7
			c-0.5,1-0.7,2.1-0.7,3.3c0,1.8,0.5,3.4,1.6,4.6c1.1,1.2,2.5,2.3,4.3,3.3c1.8,0.9,3.8,1.8,6.1,2.7c2.3,0.8,4.6,1.7,6.9,2.7
			c2.3,1,4.6,2.1,6.9,3.4c2.3,1.3,4.3,2.9,6.1,4.8c1.8,1.9,3.2,4.2,4.3,6.8C607,140.2,607.6,143.3,607.6,146.9z"/>
	</g>
	<path id="XMLID_4_" class="st1" d="M530.5,243c-65.6,0-119-53.4-119-119c0-65.6,53.4-119,119-119s119,53.4,119,119
		C649.5,189.6,596.1,243,530.5,243z M530.5,25c-54.6,0-99,44.4-99,99s44.4,99,99,99s99-44.4,99-99S585.1,25,530.5,25z"/>
	<g id="XMLID_3_">
		<path id="XMLID_8_" class="st0" d="M57.5,182.9c0,0.4,0,0.7-0.1,1c-0.1,0.3-0.1,0.5-0.2,0.7c-0.1,0.2-0.2,0.3-0.4,0.4
			c-0.2,0.1-0.3,0.1-0.5,0.1H40.4v49.2c0,0.2,0,0.3-0.1,0.5c-0.1,0.1-0.2,0.3-0.4,0.3c-0.2,0.1-0.5,0.2-0.8,0.2
			c-0.3,0.1-0.7,0.1-1.2,0.1c-0.5,0-0.9,0-1.2-0.1c-0.3-0.1-0.6-0.1-0.8-0.2c-0.2-0.1-0.3-0.2-0.4-0.3c-0.1-0.1-0.1-0.3-0.1-0.5
			v-49.2H19.5c-0.2,0-0.4,0-0.6-0.1c-0.2-0.1-0.3-0.2-0.4-0.4c-0.1-0.2-0.2-0.4-0.2-0.7c-0.1-0.3-0.1-0.6-0.1-1c0-0.4,0-0.7,0.1-1
			c0.1-0.3,0.1-0.5,0.2-0.7c0.1-0.2,0.2-0.3,0.4-0.4c0.2-0.1,0.3-0.1,0.6-0.1h36.7c0.2,0,0.4,0,0.5,0.1c0.2,0.1,0.3,0.2,0.4,0.4
			c0.1,0.2,0.2,0.4,0.2,0.7C57.5,182.1,57.5,182.5,57.5,182.9z"/>
		<path id="XMLID_10_" class="st0" d="M87.8,213.2c0,1-0.3,1.7-0.8,2.1c-0.5,0.4-1,0.6-1.5,0.6H60.1c0,2.4,0.2,4.5,0.7,6.4
			c0.5,1.9,1.2,3.6,2.2,4.9c1,1.4,2.4,2.4,4.1,3.1s3.7,1.1,6.2,1.1c1.7,0,3.3-0.2,4.6-0.5c1.4-0.3,2.6-0.7,3.6-1
			c1-0.4,1.8-0.7,2.5-1c0.6-0.3,1.1-0.5,1.4-0.5c0.2,0,0.3,0,0.5,0.1c0.1,0.1,0.2,0.2,0.3,0.4c0.1,0.2,0.1,0.4,0.2,0.7
			s0.1,0.6,0.1,1.1c0,0.2,0,0.4,0,0.6c0,0.2-0.1,0.4-0.1,0.5c0,0.2-0.1,0.3-0.2,0.4c-0.1,0.1-0.2,0.3-0.3,0.4
			c-0.1,0.1-0.6,0.4-1.3,0.7c-0.7,0.4-1.6,0.7-2.8,1.1c-1.2,0.4-2.5,0.7-4,0.9c-1.5,0.3-3.2,0.4-4.9,0.4c-2.9,0-5.4-0.4-7.6-1.3
			c-2.2-0.9-4.1-2.2-5.6-3.9c-1.5-1.7-2.7-3.9-3.4-6.4c-0.8-2.6-1.2-5.5-1.2-8.9c0-3.2,0.4-6.1,1.2-8.7s2-4.7,3.5-6.5
			c1.5-1.8,3.3-3.1,5.4-4.1s4.5-1.4,7.1-1.4c2.8,0,5.2,0.5,7.2,1.4c2,1,3.6,2.2,4.9,3.9c1.3,1.6,2.2,3.5,2.8,5.6
			c0.6,2.1,0.9,4.4,0.9,6.8V213.2z M82.7,211.7c0.1-4.1-0.8-7.2-2.7-9.5c-1.9-2.3-4.6-3.4-8.3-3.4c-1.9,0-3.5,0.4-4.9,1.1
			c-1.4,0.7-2.6,1.7-3.6,2.8c-1,1.2-1.7,2.6-2.2,4.1c-0.5,1.6-0.8,3.2-0.9,4.9H82.7z"/>
		<path id="XMLID_13_" class="st0" d="M125,228.6c0,0.3,0,0.6,0,0.9c0,0.3-0.1,0.5-0.1,0.7c-0.1,0.2-0.1,0.4-0.2,0.5
			c-0.1,0.2-0.3,0.4-0.7,0.8s-1,0.8-1.8,1.4c-0.8,0.6-1.8,1.1-2.8,1.5c-1,0.4-2.2,0.8-3.4,1c-1.2,0.3-2.5,0.4-3.7,0.4
			c-2.6,0-4.9-0.4-6.8-1.3c-2-0.9-3.7-2.2-5-3.9c-1.3-1.7-2.4-3.9-3.1-6.4s-1-5.4-1-8.7c0-3.7,0.4-6.9,1.3-9.5s2-4.8,3.6-6.5
			c1.5-1.7,3.3-2.9,5.3-3.7c2-0.8,4.2-1.2,6.5-1.2c1.2,0,2.4,0.1,3.5,0.4s2.2,0.6,3.1,0.9s1.8,0.8,2.5,1.3c0.7,0.5,1.3,0.9,1.6,1.3
			c0.3,0.4,0.6,0.6,0.7,0.8c0.1,0.2,0.2,0.4,0.3,0.6c0.1,0.2,0.1,0.5,0.1,0.7c0,0.3,0,0.6,0,0.9c0,0.8-0.1,1.4-0.3,1.7
			c-0.2,0.3-0.5,0.5-0.8,0.5c-0.4,0-0.9-0.3-1.4-0.8c-0.6-0.5-1.3-1.1-2.2-1.7c-0.9-0.6-1.9-1.2-3.2-1.7c-1.2-0.5-2.7-0.8-4.5-0.8
			c-3.6,0-6.3,1.4-8.2,4.2c-1.9,2.8-2.9,6.9-2.9,12.2c0,2.7,0.3,5,0.8,7c0.5,2,1.3,3.7,2.2,5c1,1.3,2.2,2.3,3.6,3c1.4,0.7,3,1,4.7,1
			c1.6,0,3.1-0.3,4.4-0.8c1.3-0.5,2.4-1.1,3.3-1.8c0.9-0.6,1.7-1.2,2.3-1.8s1.1-0.8,1.4-0.8c0.2,0,0.3,0,0.4,0.1
			c0.1,0.1,0.2,0.3,0.3,0.5s0.1,0.5,0.2,0.8S125,228.2,125,228.6z"/>
		<path id="XMLID_15_" class="st0" d="M165,234.3c0,0.2,0,0.3-0.1,0.5c-0.1,0.1-0.2,0.3-0.4,0.3c-0.2,0.1-0.4,0.2-0.7,0.2
			c-0.3,0.1-0.7,0.1-1.2,0.1c-0.5,0-0.9,0-1.2-0.1c-0.3-0.1-0.6-0.1-0.7-0.2c-0.2-0.1-0.3-0.2-0.4-0.3c-0.1-0.1-0.1-0.3-0.1-0.5
			v-22.7c0-2.4-0.2-4.3-0.5-5.8c-0.4-1.5-0.9-2.7-1.6-3.8c-0.7-1.1-1.6-1.9-2.7-2.4c-1.1-0.6-2.4-0.9-3.9-0.9
			c-1.9,0-3.8,0.7-5.7,2.1c-1.9,1.4-3.9,3.4-6,6.1v27.4c0,0.2,0,0.3-0.1,0.5c-0.1,0.1-0.2,0.3-0.4,0.3c-0.2,0.1-0.4,0.2-0.7,0.2
			c-0.3,0.1-0.7,0.1-1.2,0.1c-0.5,0-0.9,0-1.2-0.1c-0.3-0.1-0.6-0.1-0.8-0.2c-0.2-0.1-0.3-0.2-0.4-0.3c-0.1-0.1-0.1-0.3-0.1-0.5
			v-38.2c0-0.2,0-0.3,0.1-0.5c0.1-0.1,0.2-0.3,0.4-0.4c0.2-0.1,0.4-0.2,0.7-0.2c0.3,0,0.7-0.1,1.1-0.1c0.5,0,0.8,0,1.2,0.1
			c0.3,0,0.5,0.1,0.7,0.2c0.2,0.1,0.3,0.2,0.3,0.4c0.1,0.1,0.1,0.3,0.1,0.5v5.4c2.1-2.4,4.2-4.2,6.3-5.3c2.1-1.1,4.1-1.6,6.1-1.6
			c2.4,0,4.5,0.4,6.2,1.3c1.7,0.8,3,2,4,3.4c1,1.4,1.8,3.1,2.2,5c0.5,1.9,0.7,4.2,0.7,6.9V234.3z"/>
		<path id="XMLID_17_" class="st0" d="M211.5,214.8c0,3-0.4,5.8-1.2,8.4c-0.8,2.6-1.9,4.8-3.4,6.7c-1.5,1.9-3.4,3.4-5.7,4.4
			c-2.3,1.1-4.9,1.6-7.9,1.6c-2.9,0-5.4-0.5-7.6-1.4c-2.2-0.9-4-2.3-5.5-4.1c-1.5-1.8-2.6-3.9-3.3-6.4c-0.7-2.5-1.1-5.3-1.1-8.5
			c0-3,0.4-5.8,1.1-8.4c0.8-2.6,1.9-4.8,3.4-6.6c1.5-1.9,3.4-3.3,5.7-4.4c2.3-1,4.9-1.6,8-1.6c2.9,0,5.4,0.5,7.6,1.4
			c2.2,0.9,4,2.3,5.4,4c1.5,1.8,2.5,3.9,3.3,6.4C211.1,208.8,211.5,211.7,211.5,214.8z M206.3,215.2c0-2.2-0.2-4.2-0.6-6.2
			s-1.1-3.7-2.1-5.2c-1-1.5-2.2-2.7-3.9-3.6c-1.6-0.9-3.6-1.3-6-1.3c-2.2,0-4.1,0.4-5.8,1.2c-1.6,0.8-2.9,1.9-4,3.4
			c-1,1.4-1.8,3.2-2.3,5.1s-0.7,4.1-0.7,6.4c0,2.2,0.2,4.3,0.6,6.3c0.4,2,1.1,3.7,2.1,5.2c1,1.5,2.2,2.7,3.9,3.5
			c1.6,0.9,3.6,1.3,6,1.3c2.2,0,4.1-0.4,5.8-1.2c1.6-0.8,2.9-1.9,4-3.4c1-1.4,1.8-3.1,2.3-5.1C206.1,219.7,206.3,217.6,206.3,215.2z
			"/>
		<path id="XMLID_20_" class="st0" d="M227.4,234.3c0,0.2,0,0.3-0.1,0.5c-0.1,0.1-0.2,0.3-0.4,0.3c-0.2,0.1-0.4,0.2-0.7,0.2
			c-0.3,0.1-0.7,0.1-1.2,0.1c-0.5,0-0.9,0-1.2-0.1c-0.3-0.1-0.6-0.1-0.8-0.2c-0.2-0.1-0.3-0.2-0.4-0.3c-0.1-0.1-0.1-0.3-0.1-0.5
			v-56.9c0-0.2,0-0.3,0.1-0.5c0.1-0.1,0.2-0.3,0.4-0.4c0.2-0.1,0.4-0.2,0.8-0.2c0.3,0,0.7-0.1,1.2-0.1c0.5,0,0.9,0,1.2,0.1
			c0.3,0,0.6,0.1,0.7,0.2c0.2,0.1,0.3,0.2,0.4,0.4c0.1,0.1,0.1,0.3,0.1,0.5V234.3z"/>
		<path id="XMLID_22_" class="st0" d="M274,214.8c0,3-0.4,5.8-1.2,8.4c-0.8,2.6-1.9,4.8-3.4,6.7c-1.5,1.9-3.4,3.4-5.7,4.4
			c-2.3,1.1-4.9,1.6-7.9,1.6c-2.9,0-5.4-0.5-7.6-1.4c-2.2-0.9-4-2.3-5.5-4.1c-1.5-1.8-2.6-3.9-3.3-6.4c-0.7-2.5-1.1-5.3-1.1-8.5
			c0-3,0.4-5.8,1.1-8.4c0.8-2.6,1.9-4.8,3.4-6.6c1.5-1.9,3.4-3.3,5.7-4.4c2.3-1,4.9-1.6,8-1.6c2.9,0,5.4,0.5,7.6,1.4
			c2.2,0.9,4,2.3,5.4,4c1.5,1.8,2.5,3.9,3.3,6.4C273.6,208.8,274,211.7,274,214.8z M268.8,215.2c0-2.2-0.2-4.2-0.6-6.2
			s-1.1-3.7-2.1-5.2c-1-1.5-2.2-2.7-3.9-3.6c-1.6-0.9-3.6-1.3-6-1.3c-2.2,0-4.1,0.4-5.8,1.2c-1.6,0.8-2.9,1.9-4,3.4
			c-1,1.4-1.8,3.2-2.3,5.1s-0.7,4.1-0.7,6.4c0,2.2,0.2,4.3,0.6,6.3c0.4,2,1.1,3.7,2.1,5.2c1,1.5,2.2,2.7,3.9,3.5
			c1.6,0.9,3.6,1.3,6,1.3c2.2,0,4.1-0.4,5.8-1.2c1.6-0.8,2.9-1.9,4-3.4c1-1.4,1.8-3.1,2.3-5.1C268.5,219.7,268.8,217.6,268.8,215.2z
			"/>
		<path id="XMLID_25_" class="st0" d="M314.7,197.4c0,0.8-0.1,1.3-0.4,1.6s-0.6,0.5-0.9,0.5h-5.9c1.2,1.2,2,2.5,2.4,3.9
			c0.5,1.4,0.7,2.9,0.7,4.5c0,2.2-0.3,4.1-1,5.8c-0.7,1.7-1.6,3.1-2.9,4.3c-1.2,1.2-2.7,2.1-4.4,2.7c-1.7,0.6-3.6,0.9-5.6,0.9
			c-1.7,0-3.3-0.2-4.8-0.7c-1.5-0.5-2.7-1.1-3.5-1.8c-0.5,0.6-1,1.2-1.4,1.9c-0.4,0.7-0.5,1.6-0.5,2.5c0,1.1,0.5,2,1.5,2.7
			c1,0.7,2.3,1.1,3.9,1.2l10.1,0.4c1.7,0.1,3.3,0.3,4.8,0.7c1.5,0.4,2.8,1,3.9,1.9c1.1,0.8,2,1.8,2.7,3.1c0.7,1.2,1,2.6,1,4.3
			c0,1.7-0.3,3.3-1,4.9s-1.7,2.9-3.1,4.1c-1.4,1.2-3.2,2.1-5.4,2.8c-2.2,0.7-4.8,1-7.9,1c-2.9,0-5.4-0.3-7.4-0.8
			c-2-0.5-3.7-1.2-5-2.2c-1.3-0.9-2.2-2-2.8-3.2c-0.6-1.2-0.9-2.6-0.9-4c0-1,0.1-1.9,0.3-2.8c0.2-0.9,0.6-1.7,1-2.5
			c0.5-0.8,1-1.5,1.7-2.3c0.7-0.7,1.4-1.5,2.3-2.2c-1.4-0.7-2.4-1.6-3.1-2.7c-0.7-1-1-2.2-1-3.3c0-1.7,0.3-3.3,1-4.6
			c0.7-1.3,1.5-2.5,2.4-3.6c-0.8-1.1-1.4-2.2-1.8-3.5c-0.4-1.3-0.7-2.8-0.7-4.6c0-2.1,0.3-4.1,1-5.8c0.7-1.7,1.6-3.1,2.9-4.3
			s2.7-2.1,4.4-2.7c1.7-0.6,3.6-0.9,5.6-0.9c1.1,0,2.1,0.1,3,0.2c0.9,0.1,1.8,0.3,2.6,0.5h11c0.5,0,0.8,0.2,1,0.5
			C314.6,196.1,314.7,196.7,314.7,197.4z M309.5,238.1c0-1.9-0.7-3.3-2.2-4.3c-1.5-1-3.4-1.5-5.9-1.6l-10.8-0.4
			c-1,0.8-1.8,1.5-2.4,2.2c-0.6,0.7-1.1,1.4-1.5,2c-0.4,0.7-0.6,1.3-0.8,1.9c-0.1,0.6-0.2,1.3-0.2,1.9c0,2.1,1,3.7,3.1,4.7
			c2,1.1,4.9,1.6,8.5,1.6c2.3,0,4.2-0.2,5.8-0.7c1.5-0.5,2.8-1.1,3.8-1.8c1-0.8,1.6-1.6,2.1-2.6
			C309.3,240.2,309.5,239.1,309.5,238.1z M305.6,208c0-2.9-0.8-5.2-2.3-6.8c-1.5-1.6-3.7-2.4-6.6-2.4c-1.5,0-2.7,0.3-3.8,0.8
			c-1.1,0.5-2,1.2-2.7,2.1c-0.7,0.9-1.2,1.9-1.6,3c-0.4,1.2-0.5,2.4-0.5,3.7c0,2.8,0.8,5,2.3,6.6c1.5,1.6,3.7,2.4,6.5,2.4
			c1.5,0,2.8-0.3,3.9-0.8c1.1-0.5,2-1.2,2.7-2c0.7-0.9,1.2-1.9,1.6-3C305.4,210.4,305.6,209.2,305.6,208z"/>
		<path id="XMLID_29_" class="st0" d="M330,183.2c0,1.4-0.2,2.3-0.7,2.7c-0.5,0.5-1.3,0.7-2.5,0.7c-1.2,0-2-0.2-2.5-0.7
			c-0.5-0.5-0.7-1.4-0.7-2.7c0-1.4,0.2-2.3,0.7-2.7c0.5-0.5,1.3-0.7,2.5-0.7c1.2,0,2,0.2,2.5,0.7S330,181.9,330,183.2z M329.3,234.3
			c0,0.2,0,0.3-0.1,0.5c-0.1,0.1-0.2,0.3-0.4,0.3c-0.2,0.1-0.4,0.2-0.7,0.2c-0.3,0.1-0.7,0.1-1.2,0.1c-0.5,0-0.9,0-1.2-0.1
			c-0.3-0.1-0.6-0.1-0.8-0.2c-0.2-0.1-0.3-0.2-0.4-0.3c-0.1-0.1-0.1-0.3-0.1-0.5v-38.2c0-0.2,0-0.3,0.1-0.5c0.1-0.1,0.2-0.3,0.4-0.4
			c0.2-0.1,0.4-0.2,0.8-0.2c0.3,0,0.7-0.1,1.2-0.1c0.5,0,0.9,0,1.2,0.1c0.3,0,0.6,0.1,0.7,0.2c0.2,0.1,0.3,0.2,0.4,0.4
			c0.1,0.1,0.1,0.3,0.1,0.5V234.3z"/>
		<path id="XMLID_32_" class="st0" d="M369,234.3c0,0.3-0.1,0.5-0.3,0.7c-0.2,0.2-0.4,0.3-0.7,0.3c-0.3,0.1-0.7,0.1-1.2,0.1
			c-0.5,0-0.9,0-1.2-0.1s-0.6-0.2-0.8-0.3c-0.2-0.2-0.3-0.4-0.3-0.7V230c-1.7,1.9-3.5,3.3-5.5,4.3s-4.1,1.5-6.3,1.5
			c-1.9,0-3.7-0.3-5.2-0.8c-1.5-0.5-2.9-1.3-3.9-2.2c-1.1-1-1.9-2.1-2.5-3.5s-0.9-2.9-0.9-4.6c0-2.1,0.4-3.9,1.3-5.5
			c0.8-1.6,2.1-2.9,3.6-3.9c1.6-1,3.4-1.8,5.6-2.3c2.2-0.5,4.6-0.8,7.3-0.8h5.9v-3.3c0-1.6-0.2-3.1-0.5-4.3
			c-0.3-1.3-0.9-2.3-1.6-3.1c-0.7-0.8-1.7-1.5-2.9-1.9c-1.2-0.4-2.6-0.6-4.3-0.6c-1.6,0-3.1,0.2-4.4,0.6c-1.3,0.4-2.5,0.9-3.5,1.4
			c-1,0.5-1.8,1-2.4,1.4c-0.6,0.4-1.1,0.6-1.4,0.6c-0.2,0-0.3,0-0.5-0.1c-0.1-0.1-0.3-0.2-0.3-0.3c-0.1-0.2-0.2-0.4-0.2-0.6
			c0-0.2-0.1-0.5-0.1-0.9c0-0.6,0-1.1,0.1-1.4c0.1-0.4,0.3-0.7,0.6-1.1s1-0.8,1.8-1.2c0.9-0.5,1.9-0.9,3-1.3c1.1-0.4,2.4-0.7,3.7-1
			c1.3-0.3,2.6-0.4,3.9-0.4c2.5,0,4.7,0.3,6.5,0.9c1.8,0.6,3.2,1.5,4.3,2.7c1.1,1.2,1.9,2.6,2.3,4.4c0.5,1.7,0.7,3.7,0.7,5.9V234.3z
			 M364.1,216.3h-6.8c-2,0-3.7,0.2-5.2,0.5c-1.5,0.4-2.7,0.9-3.7,1.6s-1.7,1.5-2.2,2.5c-0.5,1-0.7,2.1-0.7,3.4c0,2.2,0.7,3.9,2,5.3
			c1.4,1.3,3.3,2,5.7,2c1.9,0,3.8-0.5,5.4-1.5c1.7-1,3.5-2.6,5.4-4.7V216.3z"/>
		<path id="XMLID_35_" class="st0" d="M386.4,195.2c0,0.1,0,0.2,0,0.3c0,0.1,0,0.1-0.1,0.2c0,0-0.1,0.1-0.1,0.1c0,0-0.1,0-0.1,0
			h-4.2v13.1c0,0,0,0.1,0,0.1c0,0-0.1,0.1-0.1,0.1c-0.1,0-0.1,0-0.2,0.1c-0.1,0-0.2,0-0.3,0s-0.2,0-0.3,0c-0.1,0-0.2,0-0.2-0.1
			c-0.1,0-0.1-0.1-0.1-0.1c0,0,0-0.1,0-0.1v-13.1h-4.2c-0.1,0-0.1,0-0.1,0s-0.1-0.1-0.1-0.1s-0.1-0.1-0.1-0.2c0-0.1,0-0.2,0-0.3
			c0-0.1,0-0.2,0-0.3c0-0.1,0-0.1,0.1-0.2s0.1-0.1,0.1-0.1s0.1,0,0.1,0h9.8c0.1,0,0.1,0,0.1,0c0,0,0.1,0.1,0.1,0.1
			c0,0.1,0.1,0.1,0.1,0.2C386.4,195,386.4,195.1,386.4,195.2z"/>
		<path id="XMLID_37_" class="st0" d="M403.4,208.9c0,0,0,0.1,0,0.1c0,0-0.1,0.1-0.1,0.1c-0.1,0-0.1,0-0.2,0.1s-0.2,0-0.3,0
			c-0.1,0-0.2,0-0.3,0c-0.1,0-0.2,0-0.2-0.1c-0.1,0-0.1-0.1-0.1-0.1c0,0,0-0.1,0-0.1v-13.1h0l-5.6,13.2c0,0,0,0.1-0.1,0.1
			s-0.1,0-0.1,0.1c-0.1,0-0.1,0-0.2,0c-0.1,0-0.2,0-0.2,0c-0.1,0-0.2,0-0.3,0c-0.1,0-0.1,0-0.2,0c0,0-0.1,0-0.1-0.1s0-0.1-0.1-0.1
			l-5.3-13.2h0v13.1c0,0,0,0.1,0,0.1c0,0-0.1,0.1-0.1,0.1c-0.1,0-0.1,0-0.2,0.1s-0.2,0-0.3,0c-0.1,0-0.2,0-0.3,0s-0.2,0-0.2-0.1
			c-0.1,0-0.1-0.1-0.1-0.1c0,0,0-0.1,0-0.1v-13.6c0-0.3,0.1-0.5,0.2-0.6c0.1-0.1,0.3-0.2,0.4-0.2h0.7c0.2,0,0.3,0,0.5,0.1
			s0.3,0.1,0.4,0.2c0.1,0.1,0.2,0.2,0.3,0.3c0.1,0.1,0.1,0.2,0.2,0.4L396,207h0.1l4.9-11.5c0.1-0.2,0.2-0.3,0.2-0.5
			c0.1-0.1,0.2-0.2,0.3-0.3c0.1-0.1,0.2-0.1,0.3-0.2c0.1,0,0.2,0,0.3,0h0.8c0.1,0,0.1,0,0.2,0c0.1,0,0.1,0.1,0.2,0.1
			c0.1,0.1,0.1,0.1,0.1,0.2s0.1,0.2,0.1,0.3V208.9z"/>
	</g>
</g>
<g id="XMLID_1_">
</g>
<g id="XMLID_54_">
</g>
<g id="XMLID_55_">
</g>
<g id="XMLID_56_">
</g>
<g id="XMLID_57_">
</g>
<g id="XMLID_58_">
</g>
</svg>
