<?xml version="1.0" encoding="utf-8"?>
<!-- Generator: Adobe Illustrator 19.0.0, SVG Export Plug-In . SVG Version: 6.00 Build 0)  -->
<svg version="1.1" id="Layer_1" xmlns="http://www.w3.org/2000/svg" xmlns:xlink="http://www.w3.org/1999/xlink" x="0px" y="0px"
	 viewBox="106 -156 511.5 420" style="enable-background:new 106 -156 511.5 420;" xml:space="preserve">
<style type="text/css">
	.st0{fill:#6287C5;}
	.st1{fill:#4466B0;}
	.st2{clip-path:url(#SVGID_2_);}
	.st3{fill:#4466AF;}
	.st4{fill:#6286C4;}
</style>
<g id="XMLID_3_">
	<path id="XMLID_110_" class="st0" d="M150.9,149.8c10.7-3.1,21.3-6.3,32.1-9.1c22.4-6,44.9-11.5,67.8-15.2
		c15.5-2.5,31.1-5.2,46.7-6.8c15.5-1.5,31-3.4,46.6-3.2c8.4,0.1,16.7-1.1,25-0.9c27.9,0.4,55.8,1.1,83.7,4.3
		c42.1,4.8,83.5,13,124.1,25.6c6,1.9,11.8,4.5,18.1,5.5c-3.7,3-8,3.5-12.6,3.5c-118.4,0-236.8,0-355.2,0c-19.9,0-39.9,0-59.8,0
		C161.6,153.4,155.9,152.8,150.9,149.8z"/>
	<path id="XMLID_6_" class="st0" d="M150.4,146.8c10.7-3.1,21.3-6.3,32.1-9.1c22.4-6,44.9-11.5,67.8-15.2
		c15.5-2.5,31.1-5.2,46.7-6.8c15.5-1.5,31-3.4,46.6-3.2c8.4,0.1,16.7-1.1,25-0.9c27.9,0.4,55.8,1.1,83.7,4.3
		c42.1,4.8,83.5,13,124.1,25.6c6,1.9,11.8,4.5,18.1,5.5c-3.7,3-8,3.5-12.6,3.5c-118.4,0-236.8,0-355.2,0c-19.9,0-39.9,0-59.8,0
		C161.1,150.5,155.5,149.9,150.4,146.8z"/>
	<path id="XMLID_109_" class="st0" d="M195.5-151.9c3.6,0,13.2,26.4,19.5,39.1c2.3,4.7,4.8,9.3,7,14c1.1,2.4,2.3,2.6,4.6,1.5
		c15-7.3,47.8-24,49.2-22.5c1.2,1.3-14.5,36.7-21.4,53.2c-1,2.4-2.2,3.8-5.3,3.8c-35.7-0.1-71.4-0.1-107.1,0c-3,0-4.4-1.1-5.4-3.7
		c-7.3-17.3-19.4-53.4-18.2-54.5c1.1-1,31.1,15.2,45.5,22.5c3,1.5,4.2,0.8,5.5-1.9C175.8-113.5,190-151.9,195.5-151.9z"/>
	<path id="XMLID_108_" class="st1" d="M195.2-9c-18.5,0-37.1-0.1-55.6,0.1c-3.8,0-4.7-1.2-4.6-4.7c0.3-6.5,0.2-13,0-19.5
		c-0.1-2.7,0.6-3.8,3.6-3.8c37.8,0.1,75.7,0.1,113.5,0c2.9,0,3.7,1,3.6,3.8c-0.2,6.8-0.2,13.6,0,20.4c0.1,3.2-1.2,3.8-4.1,3.8
		C232.9-9.1,214.1-9,195.2-9z"/>
	<path id="XMLID_2_" class="st1" d="M150.9,149.8c-10.5-5-15.4-14-15.6-24.9c-0.4-35-0.1-69.9-0.2-104.9c0-3,0.9-4,3.9-4
		c37.6,0.1,75.2,0.1,112.8,0c4.7,0,5,2.8,4.9,5.9c-0.3,8.8,0.6,17.5,2.9,25.9c2.5,9.1,5.9,17.8,14.5,23.2c7.1,4.5,15,5.4,23,4.2
		c22.8-3.3,43.4-13.2,64.3-21.9C389.1,41.7,416.8,30,446.2,23c19.4-4.6,39.2-6.5,59-4.8c20.3,1.8,38.6,9.6,54.2,23.3
		c20,17.7,31.4,40.2,39,65.2c2,6.6,3.5,13.2,5.1,19.9c1.9,8.4-1.7,18.6-8.5,23.3c-3.3,1.2-6.5,1-9.9-0.2
		c-25.4-8.6-51.3-15.2-77.6-20.1c-21.9-4.1-43.9-7.2-66-9.4c-22.2-2.3-44.4-3.1-66.6-3.1c-22,0-44.1,0.9-66.2,3.1
		c-25.1,2.5-50,6.1-74.7,10.9c-22.2,4.3-44.1,9.8-65.7,16.4C162.6,149.2,157,151.5,150.9,149.8z M366.7,59.4
		c-5.4-0.2-9.9,3.9-10,9.3c-0.1,5.2,3.9,9.5,9.1,9.7c5.4,0.2,9.8-3.9,10-9.3C375.9,63.9,371.9,59.7,366.7,59.4z M430.5,53.2
		c0-5.4-4.3-9.7-9.7-9.6c-5.2,0.1-9.3,4.3-9.3,9.5c0,5.4,4.3,9.7,9.7,9.6C426.5,62.6,430.5,58.4,430.5,53.2z M464.4,39.7
		c-0.2,5.4,3.9,9.9,9.3,10c5.3,0.1,9.5-3.9,9.7-9.1c0.2-5.4-3.9-9.9-9.3-10C468.9,30.5,464.6,34.5,464.4,39.7z"/>
</g>
<g id="XMLID_5_">
	<path id="XMLID_33_" class="st1" d="M138.9,229.5c-1.4-1.9-2-4.3-2-7v-49.1c0-2.7,0.7-5,2-7c1.4-1.9,3-2.9,4.9-2.9s3.5,1,4.9,2.9
		c1.4,2,2.1,4.3,2.1,7l-0.1,21.4l17.4-24.3c0.8-1.3,1.4-2.2,1.7-2.8s0.9-1.2,1.5-2s1.2-1.3,1.8-1.6c0.6-0.3,1.2-0.5,1.8-0.5
		c1.6,0,3.1,0.7,4.3,2.2c1.3,1.5,1.9,3.3,1.9,5.4c0,2-1.2,5-3.6,8.9l-12.2,16.3l13,18.8c2.4,4.2,3.7,7.4,3.7,9.6
		c0,2.1-0.7,3.9-2,5.4s-2.8,2.2-4.5,2.2c-0.5,0-1-0.1-1.5-0.3c-0.5-0.2-0.9-0.5-1.4-0.9s-0.9-0.8-1.2-1.2c-0.3-0.4-0.7-0.9-1.2-1.6
		s-0.8-1.3-1-1.6c-0.2-0.4-0.6-1-1.1-1.9s-0.8-1.4-1-1.7l-16.6-24.7l0.1,24c0,2.7-0.7,5-2.1,7c-1.4,2-3,2.9-5,2.9
		C141.9,232.4,140.3,231.5,138.9,229.5z"/>
	<path id="XMLID_35_" class="st1" d="M193.2,229.6c-1.4-1.9-2-4.2-2-7v-49.2c0-2.7,0.7-5,2-7c1.4-1.9,3-2.9,5-2.9
		c1.9,0,3.6,1,4.9,2.9c1.3,1.9,2.1,4.3,2.1,7v49.2c0,2.7-0.7,5-2.1,7c-1.4,1.9-3,2.9-5,2.9C196.2,232.4,194.6,231.5,193.2,229.6z"/>
	<path id="XMLID_37_" class="st1" d="M218.7,230.1c-1.2-1.5-1.7-3.4-1.7-5.5v-51c0-3.1,0.7-5.6,2-7.4s3-2.7,4.9-2.7
		c2.8,0,5.6,2.7,8.5,8.1l22.5,36.4v-36.6c0-2.1,0.6-4,1.7-5.5c1.1-1.5,2.5-2.3,4.2-2.3c1.6,0,3.1,0.8,4.2,2.3
		c1.2,1.5,1.7,3.4,1.7,5.5v46.8c0,2.1-0.1,3.9-0.2,5.4c-0.2,1.5-0.5,3-0.9,4.5c-0.5,1.4-1.2,2.5-2.1,3.3c-0.9,0.8-2.1,1.1-3.5,1.1
		c-1.5,0-2.9-0.7-4.2-2.1c-1.3-1.4-2.7-3.4-4.2-5.9l-22.7-37.1v37.3c0,2.1-0.6,4-1.8,5.5s-2.6,2.3-4.2,2.3
		C221.2,232.4,219.8,231.7,218.7,230.1z"/>
	<path id="XMLID_39_" class="st1" d="M284,225.3c-5.1-5.9-7.6-15-7.6-27.2c0-5.1,0.6-9.8,1.8-14.1c1.2-4.3,2.9-8.1,5.2-11.4
		s5.3-5.9,9.1-7.8s8.1-2.8,12.9-2.8c3.2,0,6.5,0.6,9.8,1.7c3.3,1.1,6,2.6,8.1,4.4c0.8,0.7,1.5,1.6,1.9,2.6c0.4,1,0.6,2,0.6,2.9
		c0,1.7-0.4,3.1-1.3,4.4c-0.9,1.2-2,1.9-3.2,1.9c-0.8,0-1.6-0.3-2.4-1c-1.5-1.1-3.4-2-5.8-2.7s-4.6-1-6.8-1c-5,0-8.8,2-11.4,6.1
		c-2.6,4.1-3.8,10-3.8,17.7c0,4.1,0.4,7.7,1.1,10.6s1.8,5.2,3.3,6.7c1.4,1.6,3,2.7,4.7,3.4c1.7,0.7,3.7,1,6,1c2.4,0,5.1-0.4,8.1-1.3
		v-14.2H309c-1.7,0-3.1-0.4-4-1.1s-1.4-2.1-1.4-4c0-3.3,1.6-5,4.7-5c1.6,0,4,0,7.2,0s5.6,0,7.2,0c1.9,0,3.1,0.6,3.7,1.9
		s0.9,3.5,0.9,6.6v12.5c0,2.4-0.1,4.3-0.2,5.8c-0.1,1.5-0.4,2.9-0.7,4.2c-0.4,1.3-0.9,2.3-1.7,3.1c-0.7,0.8-1.7,1.4-2.8,2
		s-2.5,1-4.2,1.4c-6.1,0.9-10.3,1.4-12.4,1.4C296.2,234.2,289.1,231.3,284,225.3z"/>
	<path id="XMLID_41_" class="st1" d="M337.5,229.2c-0.8-0.6-1.3-1.4-1.7-2.4c-0.4-1-0.5-2-0.4-3c0.1-1,0.3-2,0.7-3s0.9-1.8,1.6-2.3
		c0.7-0.6,1.5-0.9,2.3-1.1c0.8-0.1,1.8,0.1,2.8,0.8c4.3,2.3,8.6,3.4,12.8,3.4c2.8,0,5.1-0.6,6.9-1.8c1.8-1.2,2.7-3.1,2.7-5.6
		c0-3.3-2-5.8-5.9-7.4l-12.6-5.2c-4.7-2.2-8.1-4.6-10-7.3c-2-2.7-2.9-6.3-2.9-11c0-6.4,2-11.5,6.1-15.3s9.6-5.7,16.5-5.7
		c3.3,0,6.7,0.5,10.1,1.6c3.5,1.1,6.1,2.6,7.9,4.7c0.8,0.9,1.2,2,1.4,3.2c0.2,1.2,0.2,2.4-0.2,3.4c-0.3,1-0.7,1.9-1.3,2.8
		c-0.6,0.9-1.2,1.4-2,1.6s-1.6,0.1-2.4-0.3c-2.3-1.6-4.4-2.7-6.3-3.3c-1.9-0.6-4.1-0.9-6.8-0.9c-1.7,0-3.3,0.2-4.8,0.7
		c-1.4,0.5-2.7,1.2-3.7,2.3c-1,1.1-1.5,2.4-1.5,4c0,2,0.7,3.6,2,4.9c1.4,1.2,3.4,2.4,6,3.5c0.6,0.3,1.6,0.5,2.9,0.7s2.3,0.4,2.9,0.7
		c2.3,0.9,4.3,1.7,6,2.6c1.7,0.8,3.3,1.8,4.8,3s2.8,2.5,3.8,3.9s1.7,3.1,2.3,5c0.6,1.9,0.9,4.1,0.9,6.6c0,6.7-2,12-6.1,15.9
		s-9.6,5.8-16.6,5.8C348.2,234.2,342,232.6,337.5,229.2z"/>
	<path id="XMLID_43_" class="st1" d="M389,229.6c-1.4-1.9-2.1-4.2-2.1-7v-49.2c0-2.7,0.7-5,2.1-7s3-2.9,4.9-2.9c2,0,3.6,1,5,2.9
		s2.1,4.2,2.1,7v16.4h19.7v-16.4c0-2.7,0.7-5,2.1-6.9s3-2.9,5-2.9s3.6,1,5,2.9s2.1,4.2,2.1,7v49.2c0,2.7-0.7,5-2.1,7
		c-1.4,1.9-3,2.9-5,2.9s-3.6-1-4.9-2.9c-1.4-1.9-2.1-4.2-2.1-7V204H401v18.7c0,2.7-0.7,5-2.1,7c-1.4,1.9-3,2.9-5,2.9
		C392.1,232.4,390.4,231.5,389,229.6z"/>
	<path id="XMLID_45_" class="st1" d="M450.1,225.2c-4.6-6-6.9-15-6.9-27s2.3-21.1,6.9-27.1s11.4-9,20.3-9s15.7,3,20.3,9
		c4.6,6,6.9,15.1,6.9,27.1s-2.3,21-6.9,27s-11.3,9-20.3,9C461.5,234.2,454.7,231.2,450.1,225.2z M480.1,216.3
		c1.9-3.5,2.9-9.5,2.9-18.1s-1-14.7-2.9-18.2s-5.1-5.3-9.6-5.3c-3,0-5.4,0.7-7.2,2.2c-1.8,1.5-3.1,3.9-4,7.3s-1.3,8-1.3,13.9
		c0,8.6,1,14.6,2.9,18.1s5.1,5.3,9.6,5.3C475,221.5,478.2,219.8,480.1,216.3z"/>
	<path id="XMLID_48_" class="st1" d="M510.8,231.4c-0.9-0.7-1.6-1.7-2.1-2.9c-0.5-1.2-0.9-2.5-1.1-3.9s-0.4-2.8-0.4-4.3v-43
		c0-1.8,0.1-3.3,0.2-4.5s0.3-2.5,0.7-3.7c0.4-1.2,0.8-2.2,1.5-3s1.5-1.4,2.5-1.8c1.1-0.5,2.4-0.7,3.9-0.7h24.5
		c1.5,0,2.7,0.6,3.7,1.9c1,1.2,1.5,2.8,1.5,4.6c0,1.8-0.5,3.3-1.5,4.5s-2.3,1.8-3.7,1.8h-19.6v14.7h17.9c1.5,0,2.7,0.6,3.7,1.9
		c1,1.2,1.5,2.8,1.5,4.6c0,1.8-0.5,3.3-1.5,4.5s-2.3,1.8-3.7,1.8h-17.9v15.9h20.6c1.4,0,2.5,0.6,3.5,1.8c1,1.2,1.4,2.7,1.4,4.5
		s-0.5,3.3-1.4,4.5c-1,1.2-2.1,1.8-3.5,1.8H514C512.8,232.4,511.7,232.1,510.8,231.4z"/>
	<path id="XMLID_50_" class="st1" d="M556,229.2c-0.8-0.6-1.3-1.4-1.7-2.4c-0.4-1-0.5-2-0.4-3c0.1-1,0.3-2,0.7-3s0.9-1.8,1.6-2.3
		c0.7-0.6,1.5-0.9,2.3-1.1c0.8-0.1,1.8,0.1,2.8,0.8c4.3,2.3,8.6,3.4,12.8,3.4c2.8,0,5.1-0.6,6.9-1.8c1.8-1.2,2.7-3.1,2.7-5.6
		c0-3.3-2-5.8-5.9-7.4l-12.6-5.2c-4.7-2.2-8.1-4.6-10-7.3c-2-2.7-2.9-6.3-2.9-11c0-6.4,2-11.5,6.1-15.3c4.1-3.8,9.6-5.7,16.5-5.7
		c3.3,0,6.7,0.5,10.1,1.6c3.5,1.1,6.1,2.6,7.9,4.7c0.8,0.9,1.2,2,1.4,3.2s0.2,2.4-0.2,3.4c-0.3,1-0.7,1.9-1.3,2.8
		c-0.6,0.9-1.2,1.4-2,1.6s-1.6,0.1-2.4-0.3c-2.3-1.6-4.4-2.7-6.3-3.3c-1.9-0.6-4.1-0.9-6.8-0.9c-1.7,0-3.3,0.2-4.8,0.7
		c-1.4,0.5-2.7,1.2-3.7,2.3c-1,1.1-1.5,2.4-1.5,4c0,2,0.7,3.6,2,4.9c1.4,1.2,3.4,2.4,6,3.5c0.6,0.3,1.6,0.5,2.9,0.7s2.3,0.4,2.9,0.7
		c2.3,0.9,4.3,1.7,6,2.6c1.7,0.8,3.3,1.8,4.8,3s2.8,2.5,3.8,3.9s1.7,3.1,2.3,5s0.9,4.1,0.9,6.6c0,6.7-2,12-6.1,15.9
		c-4.1,3.9-9.6,5.8-16.6,5.8C566.6,234.2,560.4,232.6,556,229.2z"/>
</g>
<g id="XMLID_14_">
	<g>
		<defs>
			<path id="SVGID_1_" d="M150.4,157.7c0,0,191.4,97.6,444.1,0H150.4z"/>
		</defs>
		<clipPath id="SVGID_2_">
			<use xlink:href="#SVGID_1_"  style="overflow:visible;"/>
		</clipPath>
		<g id="XMLID_4_" class="st2">
			<path id="XMLID_13_" class="st0" d="M138.9,229.5c-1.4-1.9-2-4.3-2-7v-49.1c0-2.7,0.7-5,2-7c1.4-1.9,3-2.9,4.9-2.9s3.5,1,4.9,2.9
				c1.4,2,2.1,4.3,2.1,7l-0.1,21.4l17.4-24.3c0.8-1.3,1.4-2.2,1.7-2.8s0.9-1.2,1.5-2s1.2-1.3,1.8-1.6c0.6-0.3,1.2-0.5,1.8-0.5
				c1.6,0,3.1,0.7,4.3,2.2c1.3,1.5,1.9,3.3,1.9,5.4c0,2-1.2,5-3.6,8.9l-12.2,16.3l13,18.8c2.4,4.2,3.7,7.4,3.7,9.6
				c0,2.1-0.7,3.9-2,5.4s-2.8,2.2-4.5,2.2c-0.5,0-1-0.1-1.5-0.3c-0.5-0.2-0.9-0.5-1.4-0.9s-0.9-0.8-1.2-1.2
				c-0.3-0.4-0.7-0.9-1.2-1.6s-0.8-1.3-1-1.6c-0.2-0.4-0.6-1-1.1-1.9s-0.8-1.4-1-1.7l-16.6-24.7l0.1,24c0,2.7-0.7,5-2.1,7
				c-1.4,2-3,2.9-5,2.9C141.9,232.4,140.3,231.5,138.9,229.5z"/>
			<path id="XMLID_16_" class="st0" d="M193.2,229.6c-1.4-1.9-2-4.2-2-7v-49.2c0-2.7,0.7-5,2-7c1.4-1.9,3-2.9,5-2.9
				c1.9,0,3.6,1,4.9,2.9c1.3,1.9,2.1,4.3,2.1,7v49.2c0,2.7-0.7,5-2.1,7c-1.4,1.9-3,2.9-5,2.9C196.2,232.4,194.6,231.5,193.2,229.6z"
				/>
			<path id="XMLID_18_" class="st0" d="M218.7,230.1c-1.2-1.5-1.7-3.4-1.7-5.5v-51c0-3.1,0.7-5.6,2-7.4s3-2.7,4.9-2.7
				c2.8,0,5.6,2.7,8.5,8.1l22.5,36.4v-36.6c0-2.1,0.6-4,1.7-5.5c1.1-1.5,2.5-2.3,4.2-2.3c1.6,0,3.1,0.8,4.2,2.3
				c1.2,1.5,1.7,3.4,1.7,5.5v46.8c0,2.1-0.1,3.9-0.2,5.4c-0.2,1.5-0.5,3-0.9,4.5c-0.5,1.4-1.2,2.5-2.1,3.3c-0.9,0.8-2.1,1.1-3.5,1.1
				c-1.5,0-2.9-0.7-4.2-2.1c-1.3-1.4-2.7-3.4-4.2-5.9l-22.7-37.1v37.3c0,2.1-0.6,4-1.8,5.5s-2.6,2.3-4.2,2.3
				C221.2,232.4,219.8,231.7,218.7,230.1z"/>
			<path id="XMLID_20_" class="st0" d="M284,225.3c-5.1-5.9-7.6-15-7.6-27.2c0-5.1,0.6-9.8,1.8-14.1c1.2-4.3,2.9-8.1,5.2-11.4
				s5.3-5.9,9.1-7.8s8.1-2.8,12.9-2.8c3.2,0,6.5,0.6,9.8,1.7c3.3,1.1,6,2.6,8.1,4.4c0.8,0.7,1.5,1.6,1.9,2.6c0.4,1,0.6,2,0.6,2.9
				c0,1.7-0.4,3.1-1.3,4.4c-0.9,1.2-2,1.9-3.2,1.9c-0.8,0-1.6-0.3-2.4-1c-1.5-1.1-3.4-2-5.8-2.7s-4.6-1-6.8-1c-5,0-8.8,2-11.4,6.1
				c-2.6,4.1-3.8,10-3.8,17.7c0,4.1,0.4,7.7,1.1,10.6s1.8,5.2,3.3,6.7c1.4,1.6,3,2.7,4.7,3.4c1.7,0.7,3.7,1,6,1
				c2.4,0,5.1-0.4,8.1-1.3v-14.2H309c-1.7,0-3.1-0.4-4-1.1s-1.4-2.1-1.4-4c0-3.3,1.6-5,4.7-5c1.6,0,4,0,7.2,0s5.6,0,7.2,0
				c1.9,0,3.1,0.6,3.7,1.9s0.9,3.5,0.9,6.6v12.5c0,2.4-0.1,4.3-0.2,5.8c-0.1,1.5-0.4,2.9-0.7,4.2c-0.4,1.3-0.9,2.3-1.7,3.1
				c-0.7,0.8-1.7,1.4-2.8,2s-2.5,1-4.2,1.4c-6.1,0.9-10.3,1.4-12.4,1.4C296.2,234.2,289.1,231.3,284,225.3z"/>
			<path id="XMLID_22_" class="st0" d="M337.5,229.2c-0.8-0.6-1.3-1.4-1.7-2.4c-0.4-1-0.5-2-0.4-3c0.1-1,0.3-2,0.7-3
				s0.9-1.8,1.6-2.3c0.7-0.6,1.5-0.9,2.3-1.1c0.8-0.1,1.8,0.1,2.8,0.8c4.3,2.3,8.6,3.4,12.8,3.4c2.8,0,5.1-0.6,6.9-1.8
				c1.8-1.2,2.7-3.1,2.7-5.6c0-3.3-2-5.8-5.9-7.4l-12.6-5.2c-4.7-2.2-8.1-4.6-10-7.3c-2-2.7-2.9-6.3-2.9-11c0-6.4,2-11.5,6.1-15.3
				s9.6-5.7,16.5-5.7c3.3,0,6.7,0.5,10.1,1.6c3.5,1.1,6.1,2.6,7.9,4.7c0.8,0.9,1.2,2,1.4,3.2c0.2,1.2,0.2,2.4-0.2,3.4
				c-0.3,1-0.7,1.9-1.3,2.8c-0.6,0.9-1.2,1.4-2,1.6s-1.6,0.1-2.4-0.3c-2.3-1.6-4.4-2.7-6.3-3.3c-1.9-0.6-4.1-0.9-6.8-0.9
				c-1.7,0-3.3,0.2-4.8,0.7c-1.4,0.5-2.7,1.2-3.7,2.3c-1,1.1-1.5,2.4-1.5,4c0,2,0.7,3.6,2,4.9c1.4,1.2,3.4,2.4,6,3.5
				c0.6,0.3,1.6,0.5,2.9,0.7s2.3,0.4,2.9,0.7c2.3,0.9,4.3,1.7,6,2.6c1.7,0.8,3.3,1.8,4.8,3s2.8,2.5,3.8,3.9s1.7,3.1,2.3,5
				c0.6,1.9,0.9,4.1,0.9,6.6c0,6.7-2,12-6.1,15.9s-9.6,5.8-16.6,5.8C348.2,234.2,342,232.6,337.5,229.2z"/>
			<path id="XMLID_24_" class="st0" d="M389,229.6c-1.4-1.9-2.1-4.2-2.1-7v-49.2c0-2.7,0.7-5,2.1-7s3-2.9,4.9-2.9c2,0,3.6,1,5,2.9
				s2.1,4.2,2.1,7v16.4h19.7v-16.4c0-2.7,0.7-5,2.1-6.9s3-2.9,5-2.9s3.6,1,5,2.9s2.1,4.2,2.1,7v49.2c0,2.7-0.7,5-2.1,7
				c-1.4,1.9-3,2.9-5,2.9s-3.6-1-4.9-2.9c-1.4-1.9-2.1-4.2-2.1-7V204H401v18.7c0,2.7-0.7,5-2.1,7c-1.4,1.9-3,2.9-5,2.9
				C392.1,232.4,390.4,231.5,389,229.6z"/>
			<path id="XMLID_26_" class="st0" d="M450.1,225.2c-4.6-6-6.9-15-6.9-27s2.3-21.1,6.9-27.1s11.4-9,20.3-9s15.7,3,20.3,9
				c4.6,6,6.9,15.1,6.9,27.1s-2.3,21-6.9,27s-11.3,9-20.3,9C461.5,234.2,454.7,231.2,450.1,225.2z M480.1,216.3
				c1.9-3.5,2.9-9.5,2.9-18.1s-1-14.7-2.9-18.2s-5.1-5.3-9.6-5.3c-3,0-5.4,0.7-7.2,2.2c-1.8,1.5-3.1,3.9-4,7.3s-1.3,8-1.3,13.9
				c0,8.6,1,14.6,2.9,18.1s5.1,5.3,9.6,5.3C475,221.5,478.2,219.8,480.1,216.3z"/>
			<path id="XMLID_29_" class="st0" d="M510.8,231.4c-0.9-0.7-1.6-1.7-2.1-2.9c-0.5-1.2-0.9-2.5-1.1-3.9s-0.4-2.8-0.4-4.3v-43
				c0-1.8,0.1-3.3,0.2-4.5s0.3-2.5,0.7-3.7c0.4-1.2,0.8-2.2,1.5-3s1.5-1.4,2.5-1.8c1.1-0.5,2.4-0.7,3.9-0.7h24.5
				c1.5,0,2.7,0.6,3.7,1.9c1,1.2,1.5,2.8,1.5,4.6c0,1.8-0.5,3.3-1.5,4.5s-2.3,1.8-3.7,1.8h-19.6v14.7h17.9c1.5,0,2.7,0.6,3.7,1.9
				c1,1.2,1.5,2.8,1.5,4.6c0,1.8-0.5,3.3-1.5,4.5s-2.3,1.8-3.7,1.8h-17.9v15.9h20.6c1.4,0,2.5,0.6,3.5,1.8c1,1.2,1.4,2.7,1.4,4.5
				s-0.5,3.3-1.4,4.5c-1,1.2-2.1,1.8-3.5,1.8H514C512.8,232.4,511.7,232.1,510.8,231.4z"/>
			<path id="XMLID_31_" class="st0" d="M556,229.2c-0.8-0.6-1.3-1.4-1.7-2.4c-0.4-1-0.5-2-0.4-3c0.1-1,0.3-2,0.7-3s0.9-1.8,1.6-2.3
				c0.7-0.6,1.5-0.9,2.3-1.1c0.8-0.1,1.8,0.1,2.8,0.8c4.3,2.3,8.6,3.4,12.8,3.4c2.8,0,5.1-0.6,6.9-1.8c1.8-1.2,2.7-3.1,2.7-5.6
				c0-3.3-2-5.8-5.9-7.4l-12.6-5.2c-4.7-2.2-8.1-4.6-10-7.3c-2-2.7-2.9-6.3-2.9-11c0-6.4,2-11.5,6.1-15.3c4.1-3.8,9.6-5.7,16.5-5.7
				c3.3,0,6.7,0.5,10.1,1.6c3.5,1.1,6.1,2.6,7.9,4.7c0.8,0.9,1.2,2,1.4,3.2s0.2,2.4-0.2,3.4c-0.3,1-0.7,1.9-1.3,2.8
				c-0.6,0.9-1.2,1.4-2,1.6s-1.6,0.1-2.4-0.3c-2.3-1.6-4.4-2.7-6.3-3.3c-1.9-0.6-4.1-0.9-6.8-0.9c-1.7,0-3.3,0.2-4.8,0.7
				c-1.4,0.5-2.7,1.2-3.7,2.3c-1,1.1-1.5,2.4-1.5,4c0,2,0.7,3.6,2,4.9c1.4,1.2,3.4,2.4,6,3.5c0.6,0.3,1.6,0.5,2.9,0.7
				s2.3,0.4,2.9,0.7c2.3,0.9,4.3,1.7,6,2.6c1.7,0.8,3.3,1.8,4.8,3s2.8,2.5,3.8,3.9s1.7,3.1,2.3,5s0.9,4.1,0.9,6.6
				c0,6.7-2,12-6.1,15.9c-4.1,3.9-9.6,5.8-16.6,5.8C566.6,234.2,560.4,232.6,556,229.2z"/>
		</g>
	</g>
</g>
<g id="XMLID_12_">
</g>
<g id="XMLID_52_">
</g>
<g id="XMLID_53_">
</g>
<g id="XMLID_54_">
</g>
<g id="XMLID_55_">
</g>
<g id="XMLID_56_">
</g>
<g id="XMLID_1_">
	<path class="st3" d="M153,402.3v-24H112v-7.9l39.3-56.3h12.9v54.8h12.3v9.4h-12.3v24H153z M153,368.9v-29.4c0-4.6,0.1-9.2,0.4-13.8
		H153c-2.7,5.2-4.9,8.9-7.3,13l-21.6,30v0.3H153z"/>
	<path class="st3" d="M222.5,402.3v-24h-40.9v-7.9l39.3-56.3h12.9v54.8h12.3v9.4h-12.3v24H222.5z M222.5,368.9v-29.4
		c0-4.6,0.1-9.2,0.4-13.8h-0.4c-2.7,5.2-4.9,8.9-7.3,13l-21.6,30v0.3H222.5z"/>
	<path class="st3" d="M305.5,322.5c-2.4-0.1-5.6,0-8.9,0.5c-18.7,3.1-28.6,16.8-30.6,31.3h0.4c4.2-5.6,11.5-10.2,21.3-10.2
		c15.6,0,26.6,11.3,26.6,28.5c0,16.1-11,31-29.3,31c-18.8,0-31.2-14.6-31.2-37.6c0-17.4,6.2-31.1,14.9-39.7
		c7.3-7.2,17.1-11.7,28.2-13c3.5-0.5,6.5-0.7,8.7-0.7V322.5z M302.1,373.4c0-12.6-7.2-20.2-18.2-20.2c-7.2,0-13.8,4.5-17.1,10.8
		c-0.8,1.4-1.4,3.1-1.4,5.3c0.3,14.5,6.9,25.2,19.4,25.2C295.2,394.5,302.1,386,302.1,373.4z"/>
	<path class="st3" d="M375.1,322.5c-2.4-0.1-5.6,0-8.9,0.5c-18.7,3.1-28.6,16.8-30.6,31.3h0.4c4.2-5.6,11.5-10.2,21.3-10.2
		c15.6,0,26.6,11.3,26.6,28.5c0,16.1-11,31-29.3,31c-18.8,0-31.2-14.6-31.2-37.6c0-17.4,6.2-31.1,14.9-39.7
		c7.3-7.2,17.1-11.7,28.2-13c3.5-0.5,6.5-0.7,8.7-0.7V322.5z M371.7,373.4c0-12.6-7.2-20.2-18.2-20.2c-7.2,0-13.8,4.5-17.1,10.8
		c-0.8,1.4-1.4,3.1-1.4,5.3c0.3,14.5,6.9,25.2,19.4,25.2C364.8,394.5,371.7,386,371.7,373.4z"/>
	<path class="st3" d="M398.5,312.1c5.2-1.1,13.3-1.9,21.6-1.9c11.8,0,19.4,2,25.1,6.6c4.7,3.5,7.6,8.9,7.6,16.1
		c0,8.8-5.8,16.5-15.5,20.1v0.3c8.7,2.2,18.8,9.4,18.8,22.9c0,7.9-3.1,13.8-7.7,18.3c-6.4,5.8-16.7,8.5-31.6,8.5
		c-8.1,0-14.4-0.5-18.3-1.1V312.1z M410.3,349.5H421c12.5,0,19.8-6.5,19.8-15.3c0-10.7-8.1-14.9-20.1-14.9c-5.4,0-8.5,0.4-10.4,0.8
		V349.5z M410.3,393.3c2.3,0.4,5.7,0.5,9.9,0.5c12.2,0,23.5-4.5,23.5-17.8c0-12.5-10.7-17.6-23.6-17.6h-9.8V393.3z"/>
	<path class="st3" d="M526.4,357.3c0,30-11.1,46.5-30.6,46.5c-17.2,0-28.9-16.1-29.2-45.3c0-29.6,12.7-45.8,30.6-45.8
		C515.8,312.6,526.4,329.2,526.4,357.3z M478.5,358.6c0,22.9,7.1,35.9,17.9,35.9c12.2,0,18-14.2,18-36.7c0-21.7-5.6-35.9-17.9-35.9
		C486.1,321.9,478.5,334.6,478.5,358.6z"/>
</g>
<g id="XMLID_15_">
	<path class="st4" d="M166.4-295.5c-2.4-0.1-5.6,0-8.9,0.5c-18.7,3.1-28.6,16.8-30.6,31.3h0.4c4.2-5.6,11.5-10.2,21.3-10.2
		c15.6,0,26.6,11.3,26.6,28.5c0,16.1-11,31-29.3,31c-18.8,0-31.2-14.6-31.2-37.6c0-17.4,6.2-31.1,14.9-39.7
		c7.3-7.2,17.1-11.7,28.2-13c3.5-0.5,6.5-0.7,8.7-0.7V-295.5z M163-244.6c0-12.6-7.2-20.2-18.2-20.2c-7.2,0-13.8,4.5-17.1,10.8
		c-0.8,1.4-1.4,3.1-1.4,5.3c0.3,14.5,6.9,25.2,19.4,25.2C156.1-223.5,163-232,163-244.6z"/>
	<path class="st4" d="M185.7-215.7v-7.3l9.4-9.1c22.5-21.4,32.7-32.8,32.8-46.1c0-8.9-4.3-17.2-17.5-17.2c-8,0-14.6,4.1-18.7,7.5
		l-3.8-8.4c6.1-5.2,14.8-8.9,24.9-8.9c19,0,27,13,27,25.6c0,16.3-11.8,29.4-30.4,47.3l-7.1,6.5v0.3h39.6v9.9H185.7z"/>
	<path class="st4" d="M254.1-238.1c0-11.1,6.6-19,17.5-23.6l-0.1-0.4c-9.8-4.6-14-12.2-14-19.8c0-14,11.8-23.5,27.3-23.5
		c17.1,0,25.6,10.7,25.6,21.7c0,7.5-3.7,15.5-14.5,20.6v0.4c11,4.3,17.8,12.1,17.8,22.8c0,15.3-13.2,25.6-30,25.6
		C265.3-214.2,254.1-225.2,254.1-238.1z M301.6-238.6c0-10.7-7.5-15.9-19.4-19.3c-10.3,3-15.9,9.8-15.9,18.2
		c-0.4,8.9,6.4,16.8,17.6,16.8C294.7-222.9,301.6-229.6,301.6-238.6z M268.8-282.7c0,8.8,6.6,13.6,16.8,16.3c7.6-2.6,13.4-8,13.4-16
		c0-7.1-4.2-14.4-14.9-14.4C274.2-296.8,268.8-290.3,268.8-282.7z"/>
	<path class="st4" d="M382-303.9v7.9l-38.4,80.3h-12.3l38.2-78v-0.3h-43.1v-9.9H382z"/>
	<path class="st4" d="M462.4-218.7c-4.3,2.2-13,4.3-24.1,4.3c-25.8,0-45.2-16.3-45.2-46.2c0-28.6,19.4-48,47.7-48
		c11.4,0,18.6,2.4,21.7,4.1l-2.8,9.6c-4.5-2.2-10.8-3.8-18.4-3.8c-21.4,0-35.7,13.7-35.7,37.7c0,22.4,12.9,36.7,35.1,36.7
		c7.2,0,14.5-1.5,19.3-3.8L462.4-218.7z"/>
	<path class="st4" d="M525.6-293.8H492l-3.4,22.6c2-0.3,3.9-0.5,7.2-0.5c6.8,0,13.6,1.5,19,4.7c6.9,3.9,12.6,11.5,12.6,22.6
		c0,17.2-13.7,30.1-32.8,30.1c-9.6,0-17.8-2.7-22-5.4l3-9.1c3.7,2.2,10.8,4.9,18.8,4.9c11.3,0,20.9-7.3,20.9-19.1
		c-0.1-11.4-7.7-19.5-25.4-19.5c-5,0-8.9,0.5-12.2,0.9l5.7-42.3h42.2V-293.8z"/>
</g>
</svg>
